<svg xmlns="http://www.w3.org/2000/svg" xmlns:xlink="http://www.w3.org/1999/xlink" width="500" zoomAndPan="magnify" viewBox="0 0 375 374.999991" height="500" preserveAspectRatio="xMidYMid meet" version="1.0"><defs><clipPath id="d1de2ef8e7"><path d="M 75 34.671875 L 300.539062 34.671875 L 300.539062 340.671875 L 75 340.671875 Z M 75 34.671875 " clip-rule="nonzero"/></clipPath></defs><path fill="#ffffff" d="M 245.21875 37.671875 L 77.910156 37.671875 L 77.910156 337.921875 L 297.238281 337.921875 L 297.238281 89.671875 Z M 245.21875 37.671875 " fill-opacity="1" fill-rule="nonzero"/><path fill="#e5e5e5" d="M 243.71875 309.671875 L 197.703125 309.671875 C 196.949219 309.671875 196.449219 309.171875 196.449219 308.421875 C 196.449219 307.671875 196.949219 307.171875 197.703125 307.171875 L 243.71875 307.171875 C 244.46875 307.171875 244.96875 307.671875 244.96875 308.421875 C 244.96875 309.171875 244.46875 309.671875 243.71875 309.671875 Z M 243.71875 309.671875 " fill-opacity="1" fill-rule="nonzero"/><path fill="#e5e5e5" d="M 278.480469 295.921875 L 197.953125 295.921875 C 197.199219 295.921875 196.699219 295.421875 196.699219 294.671875 C 196.699219 293.921875 197.199219 293.421875 197.953125 293.421875 L 278.480469 293.421875 C 279.230469 293.421875 279.730469 293.921875 279.730469 294.671875 C 279.730469 295.421875 279.230469 295.921875 278.480469 295.921875 Z M 278.480469 295.921875 " fill-opacity="1" fill-rule="nonzero"/><path fill="#e5e5e5" d="M 278.480469 282.171875 L 197.953125 282.171875 C 197.199219 282.171875 196.699219 281.671875 196.699219 280.921875 C 196.699219 280.171875 197.199219 279.671875 197.953125 279.671875 L 278.480469 279.671875 C 279.230469 279.671875 279.730469 280.171875 279.730469 280.921875 C 279.730469 281.421875 279.230469 282.171875 278.480469 282.171875 Z M 278.480469 282.171875 " fill-opacity="1" fill-rule="nonzero"/><path fill="#e5e5e5" d="M 265.976562 268.171875 L 201.453125 268.171875 C 198.953125 268.171875 196.699219 265.921875 196.699219 263.421875 C 196.699219 260.921875 198.953125 258.671875 201.453125 258.671875 L 265.976562 258.671875 C 268.476562 258.671875 270.726562 260.921875 270.726562 263.421875 C 270.726562 265.921875 268.726562 268.171875 265.976562 268.171875 Z M 265.976562 268.171875 " fill-opacity="1" fill-rule="nonzero"/><path fill="#e5e5e5" d="M 141.179688 309.671875 L 95.164062 309.671875 C 94.414062 309.671875 93.914062 309.171875 93.914062 308.421875 C 93.914062 307.671875 94.414062 307.171875 95.164062 307.171875 L 141.179688 307.171875 C 141.929688 307.171875 142.429688 307.671875 142.429688 308.421875 C 142.429688 309.171875 141.929688 309.671875 141.179688 309.671875 Z M 141.179688 309.671875 " fill-opacity="1" fill-rule="nonzero"/><path fill="#e5e5e5" d="M 175.945312 295.921875 L 95.414062 295.921875 C 94.664062 295.921875 94.164062 295.421875 94.164062 294.671875 C 94.164062 293.921875 94.664062 293.421875 95.414062 293.421875 L 175.945312 293.421875 C 176.695312 293.421875 177.195312 293.921875 177.195312 294.671875 C 177.195312 295.421875 176.695312 295.921875 175.945312 295.921875 Z M 175.945312 295.921875 " fill-opacity="1" fill-rule="nonzero"/><path fill="#e5e5e5" d="M 175.945312 282.171875 L 95.414062 282.171875 C 94.664062 282.171875 94.164062 281.671875 94.164062 280.921875 C 94.164062 280.171875 94.664062 279.671875 95.414062 279.671875 L 175.945312 279.671875 C 176.695312 279.671875 177.195312 280.171875 177.195312 280.921875 C 177.195312 281.421875 176.695312 282.171875 175.945312 282.171875 Z M 175.945312 282.171875 " fill-opacity="1" fill-rule="nonzero"/><path fill="#e5e5e5" d="M 163.4375 268.171875 L 98.914062 268.171875 C 96.414062 268.171875 94.164062 265.921875 94.164062 263.421875 C 94.164062 260.921875 96.414062 258.671875 98.914062 258.671875 L 163.4375 258.671875 C 165.941406 258.671875 168.191406 260.921875 168.191406 263.421875 C 168.191406 265.921875 165.941406 268.171875 163.4375 268.171875 Z M 163.4375 268.171875 " fill-opacity="1" fill-rule="nonzero"/><path fill="#55b06e" d="M 236.214844 192.671875 C 236.464844 191.171875 235.714844 187.421875 233.214844 185.171875 C 230.714844 183.171875 226.460938 183.421875 225.460938 183.921875 C 225.210938 185.421875 225.710938 188.921875 228.460938 191.421875 C 230.460938 193.171875 235.214844 192.921875 236.214844 192.671875 Z M 236.214844 192.671875 " fill-opacity="1" fill-rule="nonzero"/><path fill="#f8b334" d="M 238.464844 197.171875 C 246.21875 197.171875 252.21875 202.671875 252.21875 211.171875 C 257.722656 214.421875 260.472656 219.671875 260.472656 225.921875 C 260.472656 236.171875 251.21875 244.421875 239.964844 244.421875 L 237.464844 244.421875 C 226.210938 244.421875 216.957031 236.171875 216.957031 225.921875 C 216.957031 219.671875 219.710938 214.421875 225.210938 211.171875 C 224.960938 202.671875 230.714844 197.171875 238.464844 197.171875 Z M 238.464844 197.171875 " fill-opacity="1" fill-rule="nonzero"/><path fill="#ffffff" d="M 240.464844 241.421875 C 239.964844 241.421875 239.464844 240.921875 239.464844 240.421875 C 239.464844 239.921875 239.964844 239.421875 240.464844 239.421875 C 248.71875 239.421875 255.472656 233.421875 255.472656 225.921875 C 255.472656 222.171875 254.222656 219.171875 251.46875 216.921875 C 250.96875 216.671875 250.96875 215.921875 251.46875 215.671875 C 251.71875 215.171875 252.472656 215.171875 252.722656 215.671875 C 255.722656 218.421875 257.222656 221.921875 257.222656 226.171875 C 257.472656 234.421875 249.71875 241.421875 240.464844 241.421875 Z M 240.464844 241.421875 " fill-opacity="1" fill-rule="nonzero"/><path fill="#ffffff" d="M 248.71875 210.671875 C 248.21875 210.671875 247.71875 210.171875 247.71875 209.671875 C 247.46875 205.921875 245.21875 201.921875 241.46875 201.171875 C 240.964844 200.921875 240.464844 200.671875 240.464844 200.171875 C 240.464844 199.671875 240.964844 199.171875 241.46875 199.171875 C 246.71875 200.671875 249.46875 204.921875 249.46875 209.671875 C 249.71875 210.171875 249.21875 210.671875 248.71875 210.671875 Z M 248.71875 210.671875 " fill-opacity="1" fill-rule="nonzero"/><path fill="#7c4d25" d="M 237.964844 201.171875 C 237.464844 201.171875 236.964844 200.671875 236.964844 200.171875 C 236.964844 195.421875 237.714844 191.921875 239.214844 189.671875 C 239.464844 189.171875 240.214844 188.921875 240.714844 189.421875 C 241.214844 189.671875 241.46875 190.421875 240.964844 190.921875 C 239.714844 192.921875 239.214844 195.921875 239.214844 200.421875 C 238.964844 200.671875 238.464844 201.171875 237.964844 201.171875 Z M 237.964844 201.171875 " fill-opacity="1" fill-rule="nonzero"/><path fill="#55b06e" d="M 134.429688 197.671875 C 134.679688 196.171875 134.429688 192.421875 131.925781 190.171875 C 129.675781 187.921875 125.425781 188.171875 124.175781 188.421875 C 123.925781 189.921875 123.925781 193.421875 126.675781 195.921875 C 128.675781 197.671875 133.179688 197.921875 134.429688 197.671875 Z M 134.429688 197.671875 " fill-opacity="1" fill-rule="nonzero"/><path fill="#8dc8aa" d="M 135.179688 203.175781 C 122.675781 196.925781 114.671875 206.921875 113.671875 214.921875 C 112.671875 222.421875 114.421875 225.675781 114.921875 227.925781 C 115.671875 230.175781 118.421875 236.421875 123.675781 240.171875 C 128.925781 243.921875 133.429688 243.171875 134.929688 242.171875 C 135.179688 241.921875 136.679688 241.921875 137.179688 242.171875 C 139.429688 243.671875 147.683594 242.421875 151.433594 237.671875 C 155.4375 232.671875 158.1875 228.171875 158.1875 218.421875 C 158.4375 208.171875 148.183594 196.675781 135.179688 203.175781 Z M 135.179688 203.175781 " fill-opacity="1" fill-rule="nonzero"/><path fill="#ffffff" d="M 148.683594 235.675781 C 148.433594 235.675781 148.183594 235.675781 148.183594 235.425781 C 147.683594 235.175781 147.683594 234.421875 147.933594 233.921875 C 151.183594 229.671875 153.433594 226.171875 153.433594 218.671875 C 153.433594 213.171875 149.433594 206.675781 143.179688 205.675781 C 142.679688 205.675781 142.179688 205.175781 142.429688 204.425781 C 142.429688 203.925781 142.929688 203.421875 143.683594 203.671875 C 150.683594 204.921875 155.4375 212.421875 155.4375 218.421875 C 155.4375 226.421875 152.933594 230.421875 149.683594 234.671875 C 149.433594 235.421875 149.183594 235.675781 148.683594 235.675781 Z M 148.683594 235.675781 " fill-opacity="1" fill-rule="nonzero"/><path fill="#7c4d25" d="M 135.179688 206.425781 C 134.679688 206.425781 134.179688 205.925781 134.179688 205.425781 C 134.179688 197.425781 137.679688 194.175781 137.929688 194.175781 C 138.429688 193.925781 138.929688 193.925781 139.429688 194.175781 C 139.679688 194.675781 139.679688 195.175781 139.429688 195.675781 C 139.429688 195.675781 136.429688 198.425781 136.429688 205.425781 C 136.429688 205.925781 135.929688 206.425781 135.179688 206.425781 Z M 135.179688 206.425781 " fill-opacity="1" fill-rule="nonzero"/><path fill="#fbcc85" d="M 297.238281 90.171875 L 297.238281 170.921875 L 187.949219 170.921875 L 187.949219 68.171875 L 275.730469 68.171875 Z M 297.238281 90.171875 " fill-opacity="1" fill-rule="nonzero"/><path fill="#f8b334" d="M 225.460938 106.925781 C 225.460938 103.425781 227.210938 101.675781 230.210938 101.675781 L 240.714844 101.675781 C 246.21875 101.675781 254.972656 104.925781 254.972656 113.675781 C 254.972656 116.675781 251.96875 121.175781 249.46875 121.425781 C 254.222656 122.175781 257.972656 128.175781 257.972656 132.675781 C 257.972656 140.675781 251.46875 146.425781 243.96875 146.425781 L 231.210938 146.425781 C 229.460938 146.425781 228.210938 146.175781 227.210938 145.675781 C 225.960938 144.925781 225.210938 143.425781 225.210938 141.175781 L 225.210938 106.925781 Z M 241.71875 119.425781 C 244.71875 119.425781 246.21875 117.425781 246.21875 115.425781 C 246.21875 113.175781 244.46875 110.925781 241.214844 110.925781 L 234.964844 110.925781 L 234.964844 119.425781 Z M 234.714844 137.425781 L 243.46875 137.425781 C 246.96875 137.425781 248.96875 134.925781 248.96875 132.425781 C 248.96875 129.675781 246.71875 126.675781 241.71875 126.675781 L 234.714844 126.675781 Z M 234.714844 137.425781 " fill-opacity="1" fill-rule="nonzero"/><path fill="#c0dfcd" d="M 187.949219 68.171875 L 77.910156 68.171875 L 77.910156 170.921875 L 187.949219 170.921875 Z M 187.949219 68.171875 " fill-opacity="1" fill-rule="nonzero"/><path fill="#8dc8aa" d="M 143.433594 138.421875 L 128.675781 138.421875 C 128.175781 139.921875 127.675781 141.421875 127.175781 142.671875 C 126.425781 145.171875 124.675781 146.421875 122.175781 146.421875 C 118.921875 146.421875 117.671875 144.171875 117.671875 141.921875 C 117.671875 141.171875 117.921875 140.671875 117.921875 139.921875 L 130.175781 105.421875 C 131.175781 102.671875 133.179688 101.421875 135.679688 101.421875 C 138.429688 101.421875 140.429688 102.921875 141.179688 105.421875 C 153.933594 140.421875 154.1875 141.171875 154.1875 141.671875 C 154.1875 144.171875 152.683594 146.171875 149.683594 146.171875 C 147.433594 146.171875 145.933594 145.171875 145.183594 143.171875 Z M 131.675781 128.921875 L 139.929688 128.921875 C 138.429688 124.421875 137.929688 123.671875 135.929688 117.421875 Z M 131.675781 128.921875 " fill-opacity="1" fill-rule="nonzero"/><path fill="#e5e5e5" d="M 186.695312 68.171875 L 189.199219 68.171875 L 189.199219 337.921875 L 186.695312 337.921875 Z M 186.695312 68.171875 " fill-opacity="1" fill-rule="nonzero"/><path fill="#e8e8e8" d="M 244.71875 37.671875 L 77.910156 37.671875 L 77.910156 68.171875 L 244.71875 68.171875 Z M 244.71875 37.671875 " fill-opacity="1" fill-rule="nonzero"/><path fill="#d25622" d="M 104.417969 54.425781 C 104.417969 57.175781 102.167969 59.421875 99.417969 59.421875 C 96.664062 59.421875 94.414062 57.175781 94.414062 54.425781 C 94.414062 51.675781 96.664062 49.425781 99.417969 49.425781 C 102.167969 49.425781 104.417969 51.675781 104.417969 54.425781 Z M 104.417969 54.425781 " fill-opacity="1" fill-rule="nonzero"/><path fill="#f29c2b" d="M 121.675781 54.425781 C 121.675781 57.175781 119.421875 59.421875 116.671875 59.421875 C 113.921875 59.421875 111.671875 57.175781 111.671875 54.425781 C 111.671875 51.675781 113.921875 49.425781 116.671875 49.425781 C 119.421875 49.425781 121.675781 51.675781 121.675781 54.425781 Z M 121.675781 54.425781 " fill-opacity="1" fill-rule="nonzero"/><path fill="#55b06e" d="M 139.179688 54.425781 C 139.179688 57.175781 136.929688 59.421875 134.179688 59.421875 C 131.425781 59.421875 129.175781 57.175781 129.175781 54.425781 C 129.175781 51.675781 131.425781 49.425781 134.179688 49.425781 C 136.929688 49.425781 139.179688 51.675781 139.179688 54.425781 Z M 139.179688 54.425781 " fill-opacity="1" fill-rule="nonzero"/><path fill="#e7e7e7" d="M 242.46875 43.921875 L 290.984375 92.171875 L 290.984375 331.421875 L 84.160156 331.421875 L 84.160156 43.921875 Z M 245.21875 37.671875 L 78.160156 37.671875 L 78.160156 337.921875 L 297.488281 337.921875 L 297.488281 89.671875 Z M 245.21875 37.671875 " fill-opacity="1" fill-rule="nonzero"/><path fill="#ececed" d="M 244.71875 37.925781 L 244.71875 90.175781 L 296.988281 90.175781 Z M 244.71875 37.925781 " fill-opacity="1" fill-rule="nonzero"/><g clip-path="url(#d1de2ef8e7)"><path fill="#221816" d="M 297.238281 340.671875 L 77.910156 340.671875 C 76.40625 340.671875 75.15625 339.421875 75.15625 337.671875 L 75.15625 37.671875 C 75.15625 36.171875 76.40625 34.671875 77.910156 34.671875 L 244.96875 34.671875 C 245.71875 34.671875 246.46875 34.921875 246.96875 35.421875 L 299.238281 87.671875 C 299.738281 88.171875 299.988281 88.921875 299.988281 89.671875 L 299.988281 337.921875 C 300.238281 339.421875 298.988281 340.671875 297.238281 340.671875 Z M 80.910156 334.921875 L 294.484375 334.921875 L 294.484375 90.921875 L 243.96875 40.421875 L 80.910156 40.421875 Z M 80.910156 334.921875 " fill-opacity="1" fill-rule="nonzero"/></g><path fill="#221816" d="M 296.488281 92.425781 L 245.21875 92.425781 C 243.71875 92.425781 242.21875 91.175781 242.21875 89.675781 L 242.21875 38.425781 C 242.21875 36.925781 243.46875 35.425781 245.21875 35.425781 C 246.71875 35.425781 247.96875 36.675781 247.96875 38.425781 L 247.96875 86.675781 L 296.488281 86.675781 C 297.988281 86.675781 299.488281 87.925781 299.488281 89.675781 C 299.488281 91.175781 297.988281 92.425781 296.488281 92.425781 Z M 296.488281 92.425781 " fill-opacity="1" fill-rule="nonzero"/></svg>