<?xml version="1.0" standalone="no"?>
<!DOCTYPE svg PUBLIC "-//W3C//DTD SVG 20010904//EN"
 "http://www.w3.org/TR/2001/REC-SVG-20010904/DTD/svg10.dtd">
<svg version="1.0" xmlns="http://www.w3.org/2000/svg"
 width="1563.000000pt" height="1563.000000pt" viewBox="0 0 1563.000000 1563.000000"
 preserveAspectRatio="xMidYMid meet">
<metadata>
Created by potrace 1.14, written by Peter Selinger 2001-2017
</metadata>
<g transform="translate(0.000000,1563.000000) scale(0.100000,-0.100000)"
fill="#000000" stroke="none">
<path d="M9428 14294 c10 -5 9 -9 -4 -18 -12 -9 -18 -32 -21 -82 -3 -44 -11
-80 -23 -100 -89 -143 -194 -212 -624 -409 -100 -45 -284 -132 -411 -193 -323
-154 -324 -155 -382 -160 -43 -4 -60 0 -97 22 -25 15 -58 43 -72 64 -104 142
-136 180 -149 176 -13 -5 -32 32 -21 43 10 11 -45 103 -105 175 -116 138 -285
274 -460 367 -133 71 -200 93 -284 93 -82 0 -131 -22 -287 -132 -140 -99 -233
-144 -488 -236 -159 -58 -392 -152 -495 -200 -134 -61 -188 -75 -325 -81 -69
-3 -145 -12 -170 -20 -153 -50 -319 -245 -533 -623 -75 -133 -253 -507 -324
-679 -221 -536 -374 -1041 -418 -1378 -20 -150 -19 -395 0 -509 20 -111 63
-240 114 -341 110 -218 308 -418 464 -469 29 -9 57 -21 63 -28 11 -11 59 -232
68 -311 2 -22 12 -86 21 -141 19 -114 17 -181 -3 -176 -30 6 -152 -83 -216
-158 -152 -178 -188 -442 -91 -670 44 -105 89 -160 175 -219 74 -49 127 -72
191 -79 l54 -7 7 -60 c10 -91 14 -309 5 -321 -4 -7 -31 -15 -62 -19 -30 -3
-57 -10 -60 -15 -5 -9 70 -30 108 -30 31 0 43 -15 51 -63 4 -21 20 -52 37 -70
l29 -32 24 27 c15 16 28 47 32 74 5 34 12 48 26 52 15 3 18 10 13 26 -3 11 -8
50 -10 86 l-5 65 14 -76 c32 -181 75 -254 62 -105 -7 77 -70 1185 -87 1541
-15 303 -4 583 42 1025 59 581 106 789 236 1050 74 149 93 182 185 317 64 92
208 244 284 299 136 96 303 176 419 200 39 8 135 17 215 20 155 6 340 -13 540
-56 375 -80 789 12 984 218 l29 31 66 -60 c121 -112 263 -181 451 -219 145
-30 360 -24 535 14 368 81 622 71 840 -35 134 -66 247 -156 340 -274 22 -27
45 -56 52 -63 7 -7 25 -34 40 -60 15 -26 44 -76 66 -112 56 -94 141 -273 171
-362 63 -185 121 -550 163 -1023 23 -261 23 -806 0 -1140 -9 -137 -28 -459
-42 -715 -13 -256 -27 -499 -30 -540 -4 -54 -3 -69 4 -52 7 15 19 22 40 22 25
0 30 -4 36 -37 10 -56 33 -93 56 -93 30 0 32 19 12 126 -16 86 -18 155 -17
534 1 610 17 808 129 1520 44 281 54 363 74 574 11 115 22 211 25 213 6 7 12
-18 41 -162 36 -176 42 -298 21 -399 -9 -43 -16 -84 -16 -92 0 -21 40 -10 135
36 131 64 295 223 389 378 242 398 247 845 20 1602 -216 715 -596 1558 -890
1970 -173 244 -379 446 -584 575 -100 63 -300 153 -375 168 -16 3 -24 4 -17 1z
m-4880 -4604 c12 -96 34 -276 51 -400 75 -558 106 -1002 106 -1515 -1 -380
-22 -566 -56 -479 -12 32 -16 154 -24 714 -3 206 -9 431 -15 500 -5 69 -12
159 -15 200 -3 41 -10 120 -15 175 -6 55 -13 127 -15 160 -3 33 -13 112 -21
175 -8 63 -17 135 -20 160 -5 40 -19 130 -65 425 -7 44 -13 150 -13 235 0 144
2 164 34 290 l35 135 6 -300 c5 -199 14 -359 27 -475z m-14 -1162 c14 -122 26
-274 32 -423 l7 -158 -33 19 c-55 32 -115 108 -140 176 -26 71 -33 189 -12
210 7 7 12 20 12 30 0 28 45 109 88 156 12 14 22 29 22 33 0 5 4 9 9 9 5 0 12
-24 15 -52z m5862 -1056 c-13 -12 -15 6 -8 63 l7 60 3 -59 c2 -32 1 -61 -2
-64z"/>
<path d="M8765 10124 c-224 -34 -455 -165 -617 -347 -80 -91 -104 -134 -94
-171 8 -32 44 -42 100 -29 22 6 97 25 166 42 68 18 169 39 223 47 153 23 565
19 687 -6 78 -17 410 -41 457 -34 24 3 57 17 73 31 45 38 82 126 88 209 l4 70
-40 35 c-141 120 -715 204 -1047 153z"/>
<path d="M5915 10114 c-246 -28 -493 -95 -576 -156 -39 -29 -52 -67 -44 -128
10 -74 69 -186 108 -207 46 -23 154 -20 407 13 192 26 245 29 501 29 208 0
290 -3 300 -12 8 -7 24 -12 34 -11 22 1 147 -23 270 -52 137 -31 143 -32 166
-9 39 39 14 91 -101 213 -102 109 -264 216 -404 269 -164 61 -407 80 -661 51z"/>
<path d="M8864 9359 c-65 -8 -133 -37 -172 -73 -56 -50 -82 -148 -82 -305 0
-192 28 -274 112 -327 37 -24 54 -27 164 -32 231 -10 311 45 335 229 14 99 6
307 -13 364 -36 109 -172 166 -344 144z"/>
<path d="M6100 9327 c-108 -25 -159 -70 -186 -164 -13 -43 -15 -91 -12 -226 3
-168 4 -173 33 -232 25 -51 38 -64 84 -89 45 -24 69 -30 147 -34 252 -13 336
97 321 418 -7 138 -16 181 -50 231 -57 85 -204 127 -337 96z"/>
<path d="M10642 8893 c-6 -26 -13 -75 -17 -108 -3 -33 -8 -70 -11 -82 -3 -16
6 -31 32 -55 123 -112 174 -284 129 -434 -19 -66 -84 -163 -130 -194 -72 -49
-72 -50 -67 -116 l4 -60 76 26 c106 37 173 81 237 157 61 71 89 119 100 173 4
19 14 47 21 62 17 33 20 193 5 260 -23 100 -80 199 -161 279 -42 42 -88 80
-101 84 -13 4 -32 16 -42 26 -10 11 -23 17 -28 13 -5 -3 -16 -1 -24 6 -11 9
-15 2 -23 -37z"/>
<path d="M10570 7443 c0 -6 -3 -19 -7 -29 -5 -14 -2 -16 23 -11 61 12 68 14
72 27 4 10 -4 12 -30 7 -21 -3 -40 -1 -47 6 -8 8 -11 8 -11 0z"/>
<path d="M8415 6610 c-11 -5 -14 -9 -7 -9 23 -2 12 -31 -19 -50 -67 -41 -324
-69 -699 -77 -421 -10 -793 19 -889 69 -48 24 -64 47 -34 47 14 0 15 2 4 9
-13 8 -65 6 -118 -5 -26 -5 -31 -24 -7 -24 8 0 19 -12 25 -28 5 -15 29 -43 54
-62 24 -19 44 -39 45 -43 1 -24 186 -150 258 -175 28 -10 32 -9 32 7 0 29 37
32 140 11 229 -48 517 -47 753 1 120 24 150 21 141 -17 -6 -24 -5 -26 17 -19
62 20 190 86 244 128 101 77 217 209 199 226 -14 13 -116 20 -139 11z m-533
-212 c-15 -15 -349 -24 -459 -12 l-78 9 135 5 c279 12 415 11 402 -2z"/>
<path d="M9420 5784 c-116 -118 -298 -265 -448 -362 -103 -67 -112 -76 -113
-105 -1 -32 -16 -91 -18 -72 -2 14 -26 -35 -63 -125 -18 -41 -35 -77 -39 -80
-6 -4 -26 -57 -74 -195 -12 -33 -31 -109 -39 -150 -1 -5 -5 -16 -10 -24 -5 -8
-9 -28 -8 -44 0 -17 -6 -36 -15 -42 -8 -6 -16 -25 -18 -43 -1 -17 -7 -37 -13
-44 -5 -7 -13 -33 -17 -58 -4 -24 -9 -49 -13 -55 -3 -5 -8 -26 -9 -45 -5 -56
-6 -60 -13 -60 -9 0 -7 -44 3 -51 4 -3 2 -19 -4 -35 -6 -16 -13 -45 -14 -64
-1 -19 -5 -42 -7 -50 -3 -8 -11 -35 -18 -60 -6 -25 -20 -61 -30 -80 -10 -19
-26 -55 -36 -80 -10 -25 -29 -63 -43 -85 -14 -22 -26 -45 -27 -50 -1 -6 -19
-28 -40 -50 -22 -22 -45 -50 -53 -62 -8 -12 -19 -19 -24 -16 -6 3 -7 1 -3 -5
4 -7 -15 -26 -50 -49 -31 -21 -71 -47 -88 -59 -121 -80 -884 -98 -1026 -24
-47 24 -185 124 -275 198 -49 41 -110 90 -135 110 -55 45 -90 82 -90 94 0 5
-4 7 -8 4 -4 -2 -9 7 -10 20 -2 25 -43 84 -93 135 -29 28 -89 149 -89 178 0
10 -3 21 -7 25 -18 18 -20 200 -3 252 7 19 13 58 16 87 8 115 13 149 23 161 6
7 9 15 6 18 -2 2 -5 50 -6 106 0 56 -5 105 -11 108 -5 3 -7 16 -4 29 6 23 -9
80 -27 103 -9 12 -12 11 -17 -2 -3 -8 -5 46 -5 121 0 121 -2 137 -18 147 -86
53 -248 164 -319 219 -47 37 -91 67 -97 67 -6 0 -11 4 -11 9 0 5 -11 11 -25
13 -20 4 -26 1 -31 -17 -4 -17 -11 -21 -36 -17 -18 3 -28 1 -25 -5 3 -5 -6 -8
-24 -5 -20 3 -29 0 -29 -10 0 -9 -22 -19 -62 -28 -39 -9 -54 -16 -40 -18 12
-2 22 -7 22 -12 0 -5 -9 -7 -20 -5 -15 3 -24 -3 -30 -18 -6 -16 -9 -17 -9 -5
-1 11 -7 15 -21 11 -11 -3 -20 -10 -20 -15 0 -5 5 -6 10 -3 6 3 10 2 10 -3 0
-6 -7 -12 -15 -16 -8 -3 -15 -12 -15 -20 0 -7 -11 -17 -24 -20 -14 -3 -26 -16
-30 -31 -4 -14 -10 -24 -14 -24 -19 3 -25 -2 -12 -11 13 -9 13 -12 -2 -21 -10
-5 -18 -15 -18 -20 0 -6 5 -7 10 -4 6 3 10 2 10 -3 0 -6 -7 -12 -15 -16 -8 -3
-15 -11 -15 -18 0 -9 3 -9 11 2 10 15 6 -25 -8 -74 -4 -13 -1 -16 8 -11 9 6
11 2 7 -13 -3 -12 -1 -23 6 -26 8 -3 7 -7 -2 -14 -11 -7 -10 -10 3 -16 14 -5
15 -9 5 -21 -10 -12 -10 -15 3 -15 11 0 13 -6 9 -22 -3 -15 -2 -19 7 -14 9 6
10 0 5 -20 -5 -19 -4 -25 5 -20 7 5 11 0 11 -13 0 -12 4 -21 9 -21 5 0 7 -10
3 -22 -4 -15 -2 -19 7 -13 10 5 11 2 6 -14 -4 -14 -2 -21 7 -21 10 0 13 -10
10 -36 -3 -26 -1 -35 7 -30 6 4 11 1 11 -8 0 -10 -6 -13 -15 -10 -8 4 -15 1
-15 -7 0 -7 3 -9 7 -6 11 12 33 -15 34 -42 0 -24 1 -24 10 -6 7 15 8 10 6 -22
-2 -34 0 -40 11 -30 12 9 13 1 7 -48 -4 -33 -13 -63 -19 -67 -7 -5 -5 -8 6 -8
11 0 18 10 21 33 4 31 4 31 5 -6 2 -27 6 -36 15 -32 6 4 4 0 -5 -8 -22 -17
-23 -28 -3 -21 8 4 15 2 15 -4 0 -6 -5 -12 -11 -14 -6 -2 -7 -11 -3 -23 7 -17
9 -16 20 10 l13 30 1 -43 c0 -26 4 -41 10 -37 6 3 10 2 10 -4 0 -5 -8 -12 -17
-14 -17 -4 -17 -5 -1 -6 14 -1 16 -7 11 -33 -4 -22 -3 -29 6 -24 6 4 8 12 5
18 -4 7 -2 8 5 4 6 -4 9 -12 6 -17 -4 -5 5 -9 19 -9 14 0 26 -4 26 -10 0 -5
-16 -10 -35 -10 -27 0 -35 -4 -34 -17 0 -11 3 -13 6 -5 7 17 51 15 70 -3 8 -9
18 -13 21 -10 4 3 0 10 -8 15 -13 8 -12 10 3 10 12 0 17 -8 17 -30 0 -25 4
-30 25 -30 17 0 25 -6 26 -17 1 -12 4 -10 9 7 5 17 8 19 9 8 1 -10 6 -18 11
-18 6 0 10 -4 10 -10 0 -5 -11 -10 -25 -10 -14 0 -25 -4 -25 -9 0 -4 11 -7 25
-5 14 1 32 -4 39 -12 11 -11 16 -11 20 -1 5 9 7 9 12 0 3 -7 24 -14 47 -15 37
-1 38 -2 10 -5 -29 -4 -48 -23 -23 -23 6 0 10 -8 11 -17 0 -15 2 -15 9 2 5 11
9 15 9 8 1 -6 11 -13 24 -15 17 -2 22 -9 21 -30 0 -25 3 -28 33 -28 20 0 36
-6 39 -14 3 -8 14 -13 25 -11 10 2 19 0 19 -6 0 -5 -11 -9 -25 -9 -14 0 -25
-4 -25 -10 0 -5 16 -10 35 -10 19 0 35 -4 35 -9 0 -5 9 -11 20 -13 27 -4 23
-24 -4 -20 -19 2 -19 2 -3 -8 9 -6 22 -8 27 -5 6 3 10 1 10 -6 0 -8 4 -8 15 1
13 11 14 10 10 -1 -3 -10 12 -21 47 -36 36 -15 46 -22 30 -22 -13 -1 -20 -5
-17 -11 4 -6 11 -8 16 -5 5 4 9 -1 9 -9 0 -11 10 -16 30 -16 18 0 33 -6 36
-15 4 -8 16 -15 28 -16 21 0 21 -1 -2 -11 -22 -11 -22 -12 15 -29 21 -9 41
-15 45 -13 5 3 8 -2 8 -10 0 -11 9 -16 28 -16 l27 -1 -30 -14 -30 -13 50 -2
c38 -2 44 -4 25 -9 -24 -7 -24 -7 8 -14 18 -4 40 -14 48 -22 9 -8 20 -13 25
-10 5 4 9 2 9 -4 0 -5 -6 -12 -12 -14 -7 -3 3 -6 22 -7 31 -2 32 -3 10 -9 -22
-6 -23 -8 -7 -14 10 -4 25 -7 34 -7 8 0 21 -6 28 -12 33 -30 45 -38 54 -38 6
0 8 -7 5 -15 -4 -10 0 -15 15 -15 12 0 21 -4 21 -9 0 -5 8 -12 18 -15 34 -13
72 -37 72 -47 0 -5 9 -9 21 -9 11 0 17 -4 14 -10 -3 -5 6 -12 20 -16 14 -3 25
-10 25 -14 0 -4 20 -15 44 -25 25 -10 43 -22 40 -27 -3 -4 3 -11 13 -14 10 -3
42 -17 71 -30 29 -13 59 -24 68 -24 8 0 17 -7 20 -15 4 -8 16 -15 28 -15 12 0
26 -4 32 -9 17 -17 118 -33 239 -38 126 -5 288 16 332 43 12 8 34 14 48 14 15
0 24 4 20 9 -6 10 76 51 101 51 8 0 14 4 14 10 0 5 11 12 25 16 13 3 23 10 22
15 -2 9 62 48 116 70 15 6 27 15 27 20 0 5 7 9 16 9 10 0 14 6 10 15 -4 11 1
15 19 15 16 0 25 6 25 15 0 8 8 15 19 15 10 0 24 7 31 15 7 8 19 15 27 15 9 0
13 6 9 15 -4 11 2 15 22 16 15 0 21 3 14 6 -17 7 -5 23 19 23 10 0 19 4 19 9
0 5 10 11 23 13 12 2 21 9 19 16 -1 7 9 12 23 12 25 0 37 19 13 21 -7 0 -3 4
10 9 12 5 22 14 22 20 0 5 11 10 25 10 14 0 28 7 31 15 4 8 15 15 25 15 10 0
19 5 19 11 0 6 -7 9 -15 6 -8 -4 -17 -2 -20 3 -4 6 9 10 27 11 18 0 27 3 20 6
-17 7 -5 23 19 23 10 0 19 4 19 9 0 6 21 13 48 17 45 8 45 8 17 15 -30 7 -30
7 -3 8 31 1 49 20 21 22 -10 1 -4 4 12 8 17 4 29 12 27 19 -1 7 7 12 18 12 11
0 20 7 20 15 0 8 9 15 20 15 11 0 20 4 20 10 0 5 -7 7 -15 4 -8 -4 -15 -1 -15
5 0 6 17 11 40 11 29 0 40 4 40 15 0 8 3 14 8 14 30 -5 62 3 62 15 0 8 6 17
13 19 6 3 1 6 -13 7 -23 1 -23 2 -5 10 11 5 37 9 59 9 33 1 37 3 26 16 -11 13
-9 15 11 13 15 -2 23 2 21 10 -1 7 5 15 13 18 8 4 15 12 15 19 0 13 41 15 51
2 3 -4 12 -1 19 8 11 13 9 15 -11 16 -13 1 -27 1 -32 0 -4 -1 -2 8 5 19 16 25
29 26 22 3 -5 -16 -4 -16 10 1 8 10 29 20 46 21 30 3 56 15 32 15 -7 0 -12 4
-12 10 0 5 3 9 8 9 25 -4 42 3 43 19 0 14 2 14 9 -3 l9 -20 1 20 1 20 9 -20
c7 -17 9 -17 9 -2 1 20 56 25 64 5 3 -8 6 -6 6 5 1 17 -16 22 -69 17 -28 -2
-22 10 7 15 10 1 17 7 16 13 -1 5 7 12 18 15 15 4 19 2 15 -9 -3 -8 -1 -14 4
-14 5 0 11 8 13 18 4 16 5 16 6 0 0 -10 5 -18 11 -18 5 0 7 7 4 15 -4 8 -2 15
4 15 6 0 12 -5 14 -12 3 -7 7 -6 11 5 5 12 1 17 -13 17 -11 0 -20 4 -20 10 0
5 25 10 57 12 44 2 57 7 59 21 1 9 -2 17 -6 17 -5 0 -11 -8 -13 -17 -4 -14 -5
-14 -6 3 -1 16 6 23 30 28 43 8 51 8 44 -4 -3 -5 -1 -10 4 -10 6 0 11 6 11 13
0 9 3 8 9 -2 7 -11 11 -10 20 7 9 17 8 19 -9 15 -24 -6 -27 12 -4 21 28 11 53
6 63 -11 9 -15 10 -12 11 17 0 26 -3 31 -10 20 -8 -13 -10 -12 -10 4 0 20 0
20 -15 0 -12 -16 -14 -17 -15 -2 0 20 38 34 53 19 6 -6 24 -11 40 -11 22 0 28
4 23 15 -4 11 1 15 19 15 21 0 25 5 25 29 0 27 3 30 30 29 17 -1 36 4 41 9 8
8 -1 10 -30 9 -23 -1 -41 1 -41 6 0 4 20 8 45 8 25 0 45 -4 45 -10 0 -5 20
-10 45 -10 26 0 45 5 45 11 0 6 -14 9 -35 6 -19 -3 -35 -1 -35 4 0 5 5 9 10 9
6 0 10 8 11 18 0 14 2 14 9 -3 7 -17 9 -17 9 -2 1 9 5 17 10 17 5 0 12 8 14
18 4 13 5 11 6 -5 0 -13 -4 -23 -11 -23 -6 0 -8 -3 -5 -6 9 -10 77 -11 77 -1
0 4 -9 7 -20 7 -11 0 -20 5 -20 11 0 6 12 10 28 9 50 -4 56 -2 42 15 -10 12
-10 15 4 15 9 0 16 -4 16 -10 0 -5 14 -10 30 -10 20 0 30 5 30 15 0 18 21 20
39 3 10 -11 12 -10 9 2 -2 10 7 16 30 18 17 2 32 8 32 14 0 6 -11 8 -25 6 -13
-3 -22 -2 -20 3 3 4 1 10 -5 14 -5 3 -10 -3 -10 -15 0 -18 -5 -20 -29 -17 -23
4 -30 1 -34 -14 -3 -10 -10 -19 -15 -19 -6 0 -6 9 1 25 9 17 20 25 39 25 20 0
27 6 30 22 3 20 4 21 20 5 21 -21 68 -23 68 -2 0 18 30 20 31 3 1 -7 5 -2 9
12 8 24 8 24 9 3 1 -15 7 -23 19 -23 14 0 15 2 2 10 -13 9 -13 11 0 20 11 7
19 5 28 -7 10 -14 12 -15 12 -1 0 8 10 20 23 26 21 10 21 11 2 12 -17 2 -16 3
5 10 35 11 60 12 60 1 0 -6 -9 -8 -20 -6 -17 3 -20 -2 -20 -35 0 -21 4 -41 9
-45 6 -3 7 9 4 30 -4 28 -2 35 11 35 9 0 16 -5 16 -11 0 -5 -4 -7 -10 -4 -5 3
-10 1 -10 -4 0 -6 7 -11 15 -11 10 0 15 11 16 38 1 20 3 29 6 20 2 -10 8 -18
13 -18 10 0 0 43 -12 51 -6 3 -3 9 6 12 8 3 22 -1 31 -9 11 -11 24 -14 48 -8
17 4 26 9 20 11 -21 8 -15 51 8 58 13 4 18 12 15 22 -3 8 -6 19 -6 23 0 5 -9
7 -20 5 -11 -2 -20 0 -20 6 0 5 5 9 11 9 6 0 16 6 23 13 15 14 7 25 -33 47
-19 10 -21 14 -10 21 10 6 11 9 2 9 -7 0 -13 7 -13 16 0 8 5 12 10 9 6 -3 10
-1 10 5 0 6 -10 8 -25 4 -18 -5 -25 -2 -25 9 0 8 -4 17 -8 19 -4 2 -18 20 -31
41 -12 20 -27 37 -32 37 -5 0 -9 7 -9 15 0 8 -7 15 -15 15 -8 0 -19 9 -25 21
-7 11 -14 18 -17 16 -3 -3 -18 8 -34 24 -15 16 -33 29 -40 29 -6 0 -9 7 -5 15
3 10 -1 15 -13 15 -9 0 -27 11 -39 25 -13 14 -27 23 -33 20 -5 -4 -8 -1 -7 6
2 7 -5 15 -15 17 -11 2 -27 11 -36 20 -10 10 -28 24 -41 32 -12 8 -28 20 -34
26 -42 40 -286 167 -416 217 -82 31 -191 67 -205 67 -6 0 -53 -43 -105 -96z
m-3567 -141 c-7 -2 -19 -2 -25 0 -7 3 -2 5 12 5 14 0 19 -2 13 -5z m-203 -83
c0 -5 -2 -10 -4 -10 -3 0 -8 5 -11 10 -3 6 -1 10 4 10 6 0 11 -4 11 -10z
m4985 -460 c3 -5 1 -10 -4 -10 -6 0 -11 5 -11 10 0 6 2 10 4 10 3 0 8 -4 11
-10z m25 -70 c0 -5 -5 -10 -11 -10 -5 0 -7 5 -4 10 3 6 8 10 11 10 2 0 4 -4 4
-10z m-4370 -71 c-6 -35 -15 -89 -20 -119 -10 -66 -56 -196 -82 -229 -10 -13
-18 -29 -18 -36 0 -6 -18 -40 -40 -74 -52 -81 -91 -157 -83 -165 4 -3 2 -6 -4
-6 -13 0 -163 156 -163 169 0 5 58 65 130 134 71 68 147 146 169 173 38 48
111 189 111 215 0 7 2 10 5 7 3 -3 1 -34 -5 -69z m4310 61 c0 -5 -8 -10 -17
-10 -15 0 -16 2 -3 10 19 12 20 12 20 0z m30 6 c0 -3 -4 -8 -10 -11 -5 -3 -10
-1 -10 4 0 6 5 11 10 11 6 0 10 -2 10 -4z m-10 -36 c0 -5 -8 -10 -17 -10 -15
0 -16 2 -3 10 19 12 20 12 20 0z m-104 -22 c4 -6 3 -8 -4 -4 -6 3 -13 -2 -15
-11 -4 -14 -5 -13 -6 5 -1 23 13 30 25 10z m47 5 c-7 -2 -19 -2 -25 0 -7 3 -2
5 12 5 14 0 19 -2 13 -5z m67 -23 c0 -5 -7 -10 -15 -10 -8 0 -15 5 -15 10 0 6
7 10 15 10 8 0 15 -4 15 -10z m-150 -22 c0 -4 -7 -8 -15 -8 -8 0 -15 4 -15 8
0 5 7 9 15 9 8 0 15 -4 15 -9z m-63 -44 c-3 -3 -12 -4 -19 -1 -8 3 -5 6 6 6
11 1 17 -2 13 -5z m-309 -84 c14 0 15 -2 2 -9 -18 -12 -30 -5 -29 17 0 11 3
12 6 5 2 -7 12 -13 21 -13z m46 -10 c-10 -4 -21 -6 -24 -3 -8 7 24 22 34 16 5
-4 1 -10 -10 -13z m-54 -30 c0 -5 -2 -10 -4 -10 -3 0 -8 5 -11 10 -3 6 -1 10
4 10 6 0 11 -4 11 -10z m-93 -6 c-3 -3 -12 -4 -19 -1 -8 3 -5 6 6 6 11 1 17
-2 13 -5z m-82 -34 c3 -5 1 -10 -4 -10 -6 0 -11 5 -11 10 0 6 2 10 4 10 3 0 8
-4 11 -10z m45 0 c0 -5 -7 -10 -15 -10 -8 0 -15 5 -15 10 0 6 7 10 15 10 8 0
15 -4 15 -10z m-140 -70 c-19 -13 -30 -13 -30 0 0 6 10 10 23 10 18 0 19 -2 7
-10z m-1 -31 c-17 -11 -122 -12 -115 -1 2 4 32 8 66 8 38 1 57 -2 49 -7z
m-189 -33 c0 -3 -4 -8 -10 -11 -5 -3 -10 -1 -10 4 0 6 5 11 10 11 6 0 10 -2
10 -4z m37 -28 c-3 -7 -5 -2 -5 12 0 14 2 19 5 13 2 -7 2 -19 0 -25z m-3990
-110 c-3 -7 -5 -2 -5 12 0 14 2 19 5 13 2 -7 2 -19 0 -25z m113 -94 c0 -2 -9
-4 -21 -4 -11 0 -18 4 -14 10 5 8 35 3 35 -6z m3517 -20 c-3 -3 -12 -4 -19 -1
-8 3 -5 6 6 6 11 1 17 -2 13 -5z m-197 -150 c0 -2 -9 -4 -21 -4 -11 0 -18 4
-14 10 5 8 35 3 35 -6z m-140 -79 c0 -9 -6 -12 -16 -8 -13 5 -13 7 -2 14 17
11 18 11 18 -6z m30 -5 c0 -5 -4 -10 -10 -10 -5 0 -10 5 -10 10 0 6 5 10 10
10 6 0 10 -4 10 -10z m-710 -443 c0 -2 -10 -12 -21 -23 -22 -19 -22 -19 -8 4
12 19 29 30 29 19z m-925 -277 c25 -11 -1 -11 -35 0 -20 6 -21 8 -5 8 11 0 29
-3 40 -8z m293 -15 c-3 -3 -43 -8 -89 -10 -46 -3 -99 -8 -116 -11 -25 -4 -33
-1 -33 11 0 13 19 15 122 15 67 0 119 -2 116 -5z"/>
<path d="M5780 5650 c-13 -8 -12 -10 3 -10 9 0 17 5 17 10 0 12 -1 12 -20 0z"/>
<path d="M5658 5603 c6 -2 18 -2 25 0 6 3 1 5 -13 5 -14 0 -19 -2 -12 -5z"/>
<path d="M10731 5004 c0 -11 3 -14 6 -6 3 7 2 16 -1 19 -3 4 -6 -2 -5 -13z"/>
<path d="M10662 4985 c-7 -8 -8 -15 -3 -15 5 0 12 -8 14 -17 3 -10 5 -3 6 15
1 36 1 37 -17 17z"/>
<path d="M10648 4913 c7 -3 16 -2 19 1 4 3 -2 6 -13 5 -11 0 -14 -3 -6 -6z"/>
<path d="M10617 4890 c3 -11 7 -20 9 -20 2 0 4 9 4 20 0 11 -4 20 -9 20 -5 0
-7 -9 -4 -20z"/>
<path d="M10555 4870 c-3 -5 -1 -10 4 -10 6 0 11 5 11 10 0 6 -2 10 -4 10 -3
0 -8 -4 -11 -10z"/>
<path d="M10450 4848 c0 -4 4 -8 9 -8 6 0 12 4 15 8 3 5 -1 9 -9 9 -8 0 -15
-4 -15 -9z"/>
<path d="M10340 4828 c0 -10 -4 -18 -10 -18 -5 0 -9 -12 -9 -27 2 -24 2 -25 6
-5 4 18 11 22 41 23 35 0 35 1 12 10 -13 6 -28 15 -32 22 -5 8 -8 6 -8 -5z"/>
<path d="M10420 4820 c-13 -8 -12 -10 3 -10 9 0 17 5 17 10 0 12 -1 12 -20 0z"/>
<path d="M10280 4770 c0 -5 5 -10 11 -10 5 0 7 5 4 10 -3 6 -8 10 -11 10 -2 0
-4 -4 -4 -10z"/>
<path d="M10338 4743 c7 -3 16 -2 19 1 4 3 -2 6 -13 5 -11 0 -14 -3 -6 -6z"/>
<path d="M10135 4730 c-19 -8 -19 -9 3 -9 12 -1 22 4 22 9 0 6 -1 10 -2 9 -2
0 -12 -4 -23 -9z"/>
<path d="M10248 4733 c7 -3 16 -2 19 1 4 3 -2 6 -13 5 -11 0 -14 -3 -6 -6z"/>
<path d="M10210 4700 c0 -5 5 -10 10 -10 6 0 10 5 10 10 0 6 -4 10 -10 10 -5
0 -10 -4 -10 -10z"/>
<path d="M10100 4690 c-13 -8 -12 -10 3 -10 9 0 17 5 17 10 0 12 -1 12 -20 0z"/>
<path d="M10042 4670 c0 -14 2 -19 5 -12 2 6 2 18 0 25 -3 6 -5 1 -5 -13z"/>
<path d="M9925 4650 l-30 -8 33 -1 c17 0 32 4 32 9 0 6 -1 9 -2 9 -2 -1 -16
-5 -33 -9z"/>
<path d="M9860 4610 c0 -6 10 -8 24 -4 18 4 25 1 29 -13 4 -15 5 -14 6 5 1 18
-4 22 -29 22 -16 0 -30 -5 -30 -10z"/>
<path d="M9828 4573 c7 -3 16 -2 19 1 4 3 -2 6 -13 5 -11 0 -14 -3 -6 -6z"/>
<path d="M5562 4550 c0 -14 2 -19 5 -12 2 6 2 18 0 25 -3 6 -5 1 -5 -13z"/>
<path d="M9885 4560 c-3 -5 -1 -10 4 -10 6 0 11 5 11 10 0 6 -2 10 -4 10 -3 0
-8 -4 -11 -10z"/>
<path d="M9608 4453 c7 -3 16 -2 19 1 4 3 -2 6 -13 5 -11 0 -14 -3 -6 -6z"/>
<path d="M9641 4434 c0 -11 3 -14 6 -6 3 7 2 16 -1 19 -3 4 -6 -2 -5 -13z"/>
<path d="M9320 4300 c0 -5 5 -10 11 -10 5 0 7 5 4 10 -3 6 -8 10 -11 10 -2 0
-4 -4 -4 -10z"/>
<path d="M9263 4256 c1 -11 9 -21 17 -23 10 -3 11 -2 4 4 -6 4 -14 15 -17 23
-5 11 -6 9 -4 -4z"/>
<path d="M5828 4223 c7 -3 16 -2 19 1 4 3 -2 6 -13 5 -11 0 -14 -3 -6 -6z"/>
<path d="M5868 4223 c7 -3 16 -2 19 1 4 3 -2 6 -13 5 -11 0 -14 -3 -6 -6z"/>
<path d="M11315 4178 c-18 -83 -87 -177 -130 -178 -11 0 -27 -5 -35 -11 -13
-9 -12 -10 3 -5 10 3 16 2 13 -3 -3 -4 -24 -8 -47 -8 -26 0 -36 3 -27 8 8 6 9
9 1 9 -6 0 -14 8 -17 18 -4 14 -5 14 -4 -3 1 -57 -1 -60 -22 -35 -16 18 -20
20 -20 7 0 -10 -5 -17 -11 -17 -5 0 -7 4 -4 10 3 6 -1 7 -9 4 -9 -3 -13 -11
-9 -17 4 -6 0 -8 -10 -4 -11 4 -17 1 -17 -7 0 -9 -7 -12 -19 -9 -11 3 -21 -1
-24 -9 -2 -8 -3 -8 -2 2 2 8 6 23 10 34 6 14 4 18 -6 14 -8 -2 -15 -17 -17
-31 -2 -17 -9 -27 -20 -27 -15 0 -15 2 -2 10 13 8 12 10 -2 10 -10 0 -19 -6
-19 -12 -1 -7 -5 3 -9 22 -7 31 -7 32 -9 8 0 -16 -5 -28 -11 -28 -5 0 -10 -5
-10 -11 0 -5 5 -7 10 -4 6 3 10 -1 10 -9 0 -10 -6 -13 -15 -10 -8 4 -15 10
-15 15 0 12 -37 11 -60 -1 -10 -5 -32 -11 -49 -12 -20 -1 -31 -8 -32 -18 -1
-8 -5 -4 -9 10 -7 23 -8 23 -9 3 -1 -26 -20 -40 -31 -23 -6 10 -9 9 -13 -1 -3
-9 -6 -7 -6 6 -1 15 -4 16 -13 7 -7 -7 -20 -12 -30 -12 -10 0 -18 -6 -18 -14
0 -7 -11 -16 -25 -18 -26 -5 -35 6 -12 15 7 3 5 6 -5 6 -10 1 -18 -6 -18 -14
0 -8 -7 -15 -16 -15 -8 0 -12 -4 -9 -10 3 -5 1 -10 -4 -10 -18 0 -12 28 7 33
13 4 11 5 -5 6 -13 0 -23 -3 -23 -8 0 -5 -10 -13 -22 -17 l-23 -8 25 -6 25 -6
-27 -6 c-18 -3 -28 -1 -28 7 0 19 -60 6 -61 -14 0 -10 -2 -11 -6 -4 -3 10 -8
10 -19 -1 -20 -20 -18 -25 9 -20 20 4 21 4 2 -5 -24 -12 -82 -14 -88 -3 -2 4
-2 1 -1 -5 2 -8 -7 -14 -21 -14 -14 -1 -29 -3 -35 -4 -5 -1 -19 -3 -30 -4 -13
-1 -18 -6 -13 -17 5 -14 3 -15 -15 -5 -12 7 -22 8 -22 3 0 -4 -12 -13 -27 -20
-22 -9 -23 -11 -6 -8 13 2 25 1 27 -3 3 -4 -9 -8 -25 -9 -16 -1 -29 2 -29 8 0
5 -13 10 -30 10 -16 0 -30 -5 -30 -11 0 -6 10 -8 23 -5 22 6 22 6 -1 -6 -19
-9 -25 -9 -33 3 -7 11 -9 9 -9 -8 0 -13 -4 -23 -10 -23 -5 0 -10 -8 -10 -17 0
-14 -2 -15 -9 -5 -6 10 -23 12 -70 6 -33 -3 -61 -10 -61 -13 0 -4 16 -5 35 -3
29 3 35 1 35 -14 0 -14 -3 -15 -8 -6 -6 8 -23 10 -57 5 -34 -4 -43 -8 -30 -13
18 -6 17 -7 -3 -12 -15 -4 -22 -2 -22 8 0 8 -7 14 -15 14 -8 0 -12 -6 -9 -14
4 -9 -7 -15 -36 -20 -23 -3 -38 -11 -35 -16 3 -6 0 -10 -9 -10 -8 0 -17 6 -19
13 -3 7 -6 4 -6 -7 -1 -16 -3 -17 -18 -5 -11 10 -14 10 -9 2 5 -9 0 -13 -17
-13 -14 0 -27 -7 -31 -15 -3 -8 -15 -15 -26 -15 -11 0 -20 -6 -20 -12 0 -9 -3
-10 -8 -2 -9 14 -52 25 -52 13 0 -5 -8 -9 -17 -9 -14 0 -15 -2 -4 -9 9 -6 0
-11 -30 -16 -24 -4 -47 -13 -51 -19 -6 -8 -8 -7 -8 2 0 6 -7 12 -15 12 -8 0
-15 -7 -15 -15 0 -9 -9 -15 -25 -15 -14 0 -25 -5 -25 -11 0 -5 -4 -7 -10 -4
-5 3 -10 1 -10 -4 0 -6 -15 -11 -32 -11 -25 0 -29 3 -18 10 13 8 12 10 -2 10
-13 0 -18 -8 -19 -27 0 -16 -3 -22 -6 -15 -2 6 -13 12 -24 12 -10 0 -19 -6
-19 -12 0 -10 -2 -10 -9 0 -7 11 -9 11 -14 -2 -4 -9 -16 -16 -27 -16 -12 0
-18 -4 -15 -10 3 -5 -1 -10 -9 -10 -9 0 -16 -4 -16 -9 0 -4 -12 -6 -27 -4 -22
4 -25 2 -13 -6 13 -9 13 -11 -2 -11 -9 0 -19 6 -21 13 -4 9 -6 9 -6 -1 -1 -7
-5 -10 -11 -7 -5 3 -10 1 -10 -4 0 -6 -18 -11 -41 -11 -22 0 -38 -4 -34 -9 7
-13 -7 -21 -42 -23 -15 -1 -33 -6 -40 -11 -7 -5 -17 -6 -23 -2 -5 3 -10 1 -10
-4 0 -6 -9 -11 -20 -11 -11 0 -20 5 -20 10 0 6 -8 10 -17 10 -10 0 -14 -4 -8
-8 6 -4 11 -14 13 -22 2 -8 0 -12 -4 -8 -4 4 -14 2 -22 -5 -12 -9 -16 -9 -19
1 -3 6 -9 12 -14 12 -6 0 -7 -4 -4 -10 3 -5 -1 -10 -9 -10 -9 0 -16 -5 -16
-11 0 -5 -4 -8 -9 -5 -5 4 -12 0 -15 -6 -5 -10 -7 -10 -12 0 -3 6 -12 12 -20
12 -9 0 -12 -4 -9 -10 3 -5 2 -10 -4 -10 -5 0 -12 6 -14 13 -3 7 -6 5 -6 -5
-1 -13 -9 -18 -28 -18 -22 0 -25 -2 -13 -10 13 -8 13 -10 -2 -10 -9 0 -19 6
-21 13 -3 7 -6 5 -6 -5 -1 -16 -12 -21 -37 -17 -4 0 -10 -4 -13 -10 -4 -6 -30
-13 -59 -16 -69 -6 -102 -15 -102 -26 0 -5 -11 -9 -25 -9 -14 0 -25 -5 -25
-10 0 -6 -15 -8 -35 -6 -19 3 -33 1 -30 -3 5 -9 -65 -21 -119 -21 -21 0 -27
-3 -18 -9 14 -8 -46 -20 -117 -22 -36 -1 -36 -1 -6 -8 25 -6 20 -8 -34 -14
-35 -4 -85 -7 -110 -7 -25 0 -53 -5 -61 -10 -37 -24 263 -9 505 25 307 43 447
58 548 58 80 0 87 1 87 20 0 16 5 18 33 13 81 -14 167 -18 167 -8 0 6 -27 14
-60 18 -33 4 -57 11 -54 16 6 10 57 6 154 -11 103 -18 140 -21 140 -13 0 4
-28 14 -62 21 -81 16 -92 20 -85 27 5 6 139 -9 211 -23 19 -3 26 -2 22 6 -4 6
-20 11 -35 11 -15 0 -31 4 -37 9 -5 5 -22 12 -39 14 -16 3 8 4 55 2 47 -2 95
-6 107 -10 19 -6 21 -4 16 15 -6 21 -4 22 51 15 45 -6 56 -5 54 6 -2 11 9 13
47 11 28 -2 58 -6 68 -8 11 -4 17 0 17 11 0 15 8 16 58 10 31 -3 68 -9 82 -11
25 -5 25 -5 5 12 -19 16 -18 16 30 11 28 -2 59 -1 70 3 17 7 17 9 3 9 -10 1
-18 6 -18 12 0 7 7 8 18 4 9 -4 37 -11 62 -14 25 -4 51 -10 58 -14 6 -5 12 -3
12 2 0 6 -7 11 -15 11 -8 0 -15 5 -15 10 0 6 -9 10 -20 10 -11 0 -20 4 -20 9
0 6 13 6 33 1 17 -4 54 -11 81 -15 41 -6 48 -4 39 7 -9 11 9 13 107 13 73 0
118 4 117 10 -1 6 15 9 36 8 36 -2 50 10 25 21 -7 3 14 3 47 0 44 -4 56 -3 45
5 -8 6 -24 11 -35 11 -11 0 -27 5 -35 11 -11 7 -3 8 30 4 60 -9 81 -15 76 -23
-2 -4 17 -7 42 -7 29 0 50 5 56 13 5 10 19 12 42 7 19 -3 34 -2 34 3 0 9 -22
15 -112 28 -21 4 -38 11 -38 16 0 7 15 8 41 4 34 -6 40 -4 36 8 -5 13 1 14 39
9 35 -4 44 -3 42 8 -2 9 6 13 30 10 23 -2 32 2 32 12 0 12 9 14 43 10 23 -2
54 -9 70 -13 22 -7 27 -6 27 7 0 13 8 14 40 9 31 -5 40 -3 40 8 0 10 15 14 60
13 33 0 60 -4 60 -9 0 -4 7 -8 15 -8 9 0 12 6 8 17 -5 14 -1 15 35 10 33 -4
42 -2 42 9 0 15 62 14 187 -2 36 -4 42 -3 37 10 -5 13 2 16 37 16 79 0 27 18
-68 24 -78 5 -91 3 -86 -9 6 -17 -32 -22 -42 -5 -3 6 -1 10 5 10 6 0 8 5 5 10
-3 6 -15 10 -26 10 -21 0 -27 -20 -6 -21 6 0 1 -4 -11 -10 -28 -11 -44 -4 -40
19 2 11 -5 18 -19 20 -13 2 -23 -1 -23 -7 0 -6 8 -11 18 -11 16 -1 16 -1 -1
-11 -9 -6 -15 -14 -12 -20 4 -5 -4 -9 -15 -9 -16 0 -20 5 -16 15 3 10 -3 17
-19 21 -36 9 -55 -2 -25 -14 l25 -11 -31 0 c-26 -1 -30 3 -29 21 1 20 6 22 38
20 26 -3 37 0 37 10 0 11 13 13 68 7 69 -7 87 -5 76 12 -3 6 12 8 43 4 26 -2
96 -7 155 -10 89 -4 106 -2 102 10 -5 11 13 13 107 8 l112 -6 -6 24 c-4 13 -7
26 -7 29 0 5 -117 11 -200 10 -34 0 -41 2 -30 10 9 7 42 8 88 5 63 -6 71 -5
66 9 -5 12 0 16 20 16 29 0 35 -16 9 -23 -11 -3 -7 -5 10 -6 24 -1 27 3 27 28
0 16 -7 37 -16 45 -8 9 -12 16 -7 17 4 0 -1 4 -12 9 -17 7 -17 9 -2 9 9 1 17
2 17 4 0 1 -7 25 -16 52 -8 28 -17 61 -18 74 -2 13 -7 26 -12 30 -5 3 -10 12
-12 20 -20 93 -136 225 -236 268 -36 17 -33 18 -41 -19z m-722 -325 c-7 -2
-19 -2 -25 0 -7 3 -2 5 12 5 14 0 19 -2 13 -5z m-213 -57 c0 -2 -9 -6 -20 -9
-11 -3 -20 -1 -20 4 0 5 9 9 20 9 11 0 20 -2 20 -4z m-197 -83 c-7 -2 -21 -2
-30 0 -10 3 -4 5 12 5 17 0 24 -2 18 -5z m1374 -19 c-3 -3 -12 -4 -19 -1 -8 3
-5 6 6 6 11 1 17 -2 13 -5z m73 -4 c0 -5 -2 -10 -4 -10 -3 0 -8 5 -11 10 -3 6
-1 10 4 10 6 0 11 -4 11 -10z m-67 -27 c-7 -2 -19 -2 -25 0 -7 3 -2 5 12 5 14
0 19 -2 13 -5z m-1570 -20 c-7 -2 -19 -2 -25 0 -7 3 -2 5 12 5 14 0 19 -2 13
-5z m1365 0 c-10 -2 -26 -2 -35 0 -10 3 -2 5 17 5 19 0 27 -2 18 -5z m62 -3
c0 -5 -6 -10 -14 -10 -8 0 -18 5 -21 10 -3 6 3 10 14 10 12 0 21 -4 21 -10z
m-303 -6 c-3 -3 -12 -4 -19 -1 -8 3 -5 6 6 6 11 1 17 -2 13 -5z m91 -11 c-10
-2 -28 -2 -40 0 -13 2 -5 4 17 4 22 1 32 -1 23 -4z m77 -3 c3 -6 -5 -10 -19
-10 -14 0 -28 5 -31 10 -3 6 5 10 19 10 14 0 28 -4 31 -10z m68 -7 c-7 -2 -19
-2 -25 0 -7 3 -2 5 12 5 14 0 19 -2 13 -5z m77 -3 c-20 -13 -40 -13 -40 0 0 6
12 10 28 10 21 0 24 -2 12 -10z m75 0 c18 -8 17 -9 -7 -9 -16 -1 -28 4 -28 9
0 12 8 12 35 0z m-388 -6 c-3 -3 -12 -4 -19 -1 -8 3 -5 6 6 6 11 1 17 -2 13
-5z m455 -6 c-9 -9 -15 -9 -24 0 -9 9 -7 12 12 12 19 0 21 -3 12 -12z m68 2
c0 -5 -7 -10 -15 -10 -8 0 -15 5 -15 10 0 6 7 10 15 10 8 0 15 -4 15 -10z
m-437 -7 c-7 -2 -19 -2 -25 0 -7 3 -2 5 12 5 14 0 19 -2 13 -5z m67 3 c0 -11
-19 -15 -25 -6 -3 5 1 10 9 10 9 0 16 -2 16 -4z m93 -13 c-7 -2 -21 -2 -30 0
-10 3 -4 5 12 5 17 0 24 -2 18 -5z m-453 -73 c23 -7 24 -8 6 -15 -19 -8 -19
-9 0 -16 16 -6 14 -8 -9 -8 -21 -1 -27 3 -25 16 2 13 -6 19 -32 24 l-35 6 35
1 c19 0 46 -3 60 -8z m-1303 -6 c-3 -3 -12 -4 -19 -1 -8 3 -5 6 6 6 11 1 17
-2 13 -5z m1693 -14 c12 -8 9 -10 -12 -10 -16 0 -28 5 -28 10 0 13 20 13 40 0z
m-457 -7 c-7 -2 -19 -2 -25 0 -7 3 -2 5 12 5 14 0 19 -2 13 -5z m157 -19 c0
-2 -9 -4 -20 -4 -11 0 -20 4 -20 9 0 5 9 7 20 4 11 -3 20 -7 20 -9z m-233 0
c-3 -3 -12 -4 -19 -1 -8 3 -5 6 6 6 11 1 17 -2 13 -5z m97 -12 c2 -4 -6 -9
-19 -10 -13 -1 -27 3 -30 8 -3 6 5 10 19 10 14 0 27 -4 30 -8z m-97 -18 c-3
-3 -12 -4 -19 -1 -8 3 -5 6 6 6 11 1 17 -2 13 -5z m-344 -61 c-7 -2 -19 -2
-25 0 -7 3 -2 5 12 5 14 0 19 -2 13 -5z m-60 -20 c-7 -2 -21 -2 -30 0 -10 3
-4 5 12 5 17 0 24 -2 18 -5z m93 -14 c67 -17 61 -27 -8 -14 -35 6 -64 17 -66
24 -3 10 1 12 13 7 10 -3 37 -11 61 -17z m-176 1 c0 -13 -11 -13 -30 0 -12 8
-11 10 8 10 12 0 22 -4 22 -10z m-85 -10 c18 -8 17 -9 -7 -9 -15 -1 -30 4 -33
9 -7 12 12 12 40 0z m70 -20 c18 -8 17 -9 -7 -9 -16 -1 -28 4 -28 9 0 12 8 12
35 0z m-148 -6 c-3 -3 -12 -4 -19 -1 -8 3 -5 6 6 6 11 1 17 -2 13 -5z m-77
-13 c0 -5 -9 -7 -20 -4 -11 3 -20 7 -20 9 0 2 9 4 20 4 11 0 20 -4 20 -9z
m155 -1 c3 -5 -3 -10 -14 -10 -11 0 -23 5 -26 10 -3 6 3 10 14 10 11 0 23 -4
26 -10z m-235 -14 c0 -11 -19 -15 -25 -6 -3 5 1 10 9 10 9 0 16 -2 16 -4z
m150 -5 c0 -5 -9 -7 -20 -4 -11 3 -20 7 -20 9 0 2 9 4 20 4 11 0 20 -4 20 -9z
m-603 -57 c-3 -3 -12 -4 -19 -1 -8 3 -5 6 6 6 11 1 17 -2 13 -5z m-754 -141
c-7 -2 -21 -2 -30 0 -10 3 -4 5 12 5 17 0 24 -2 18 -5z"/>
<path d="M3976 4003 c-10 -30 1 -63 19 -57 7 3 18 -4 24 -15 14 -26 14 -31 -4
-31 -19 0 -19 0 11 -78 36 -95 46 -112 61 -112 8 0 13 -6 12 -12 -1 -7 -1 -28
0 -45 1 -30 4 -33 34 -33 25 0 29 -3 17 -11 -11 -8 -1 -9 38 -4 36 4 52 3 47
-5 -3 -5 -21 -10 -40 -10 -19 0 -37 -4 -40 -10 -8 -12 11 -13 53 -1 19 6 32 6
32 0 0 -5 -18 -12 -40 -15 -31 -5 -40 -11 -40 -26 0 -17 5 -19 33 -14 98 17
120 19 113 8 -4 -7 -22 -12 -39 -13 -18 -1 -43 -5 -57 -9 -47 -15 38 -11 99 4
31 8 79 19 106 24 28 6 63 13 78 17 19 4 26 2 22 -5 -3 -5 -19 -10 -35 -10
-16 0 -31 -4 -34 -9 -3 -5 -35 -12 -71 -16 -36 -3 -68 -11 -71 -17 -5 -8 5 -9
32 -5 103 18 119 19 104 8 -8 -6 -25 -11 -37 -11 -12 0 -24 -4 -27 -9 -4 -5
10 -6 32 -1 85 18 112 21 112 11 0 -5 -12 -12 -27 -14 -16 -3 -8 -3 17 -1 25
2 55 6 68 10 13 4 22 2 22 -5 0 -6 -13 -11 -30 -11 -16 0 -30 -4 -30 -8 0 -5
21 -5 48 -1 72 12 82 11 75 -6 -4 -13 1 -15 36 -9 26 4 41 3 41 -4 0 -7 13 -9
34 -5 19 3 36 1 40 -6 4 -6 23 -11 42 -11 21 0 33 -4 29 -10 -4 -6 17 -8 57
-5 35 2 53 2 41 -1 -46 -11 -21 -22 40 -19 34 2 50 1 35 -1 -50 -9 -30 -23 25
-18 38 4 48 3 37 -5 -8 -6 -29 -11 -47 -11 -17 0 -35 -4 -38 -10 -8 -14 19
-12 90 4 33 8 62 13 64 10 2 -2 -2 -11 -10 -20 -13 -16 -11 -17 19 -11 17 4
47 9 65 12 29 5 27 4 -13 -15 l-45 -20 63 6 c56 6 62 5 56 -10 -7 -17 3 -17
69 1 12 3 17 -1 17 -15 0 -17 4 -18 56 -10 40 6 60 5 71 -3 7 -7 32 -12 53
-11 21 1 42 -3 45 -8 3 -6 21 -10 38 -10 18 0 43 -3 56 -7 l23 -6 -23 -14
c-23 -13 -23 -13 6 -6 41 11 109 7 113 -6 2 -6 21 -11 43 -11 26 0 42 -5 45
-15 5 -11 15 -14 38 -10 19 4 42 0 61 -9 17 -9 52 -16 79 -16 27 0 63 -4 80
-9 35 -11 117 -28 193 -40 29 -5 67 -14 85 -19 18 -5 67 -15 108 -22 41 -6 95
-16 120 -21 54 -11 198 -32 435 -63 137 -18 289 -21 265 -6 -8 5 -46 10 -85
11 -47 1 -62 3 -45 8 18 5 2 10 -57 15 -46 4 -85 12 -89 17 -3 6 -16 9 -27 8
-12 0 -31 0 -42 1 l-20 1 20 9 c19 8 19 9 -2 9 -12 1 -23 -5 -26 -11 -3 -10
-9 -8 -24 5 -11 9 -35 17 -55 17 -20 0 -38 4 -40 10 -1 5 -20 10 -42 12 -21 1
-40 8 -43 15 -3 8 -24 13 -57 13 -30 0 -60 6 -72 15 -10 8 -31 15 -45 15 -14
0 -34 7 -45 15 -10 8 -39 15 -64 15 -29 0 -40 3 -32 9 9 5 -2 10 -33 14 -26 2
-51 10 -55 17 -5 7 -23 14 -42 15 -140 7 -144 7 -113 15 l30 8 -31 1 c-17 0
-37 8 -44 16 -7 8 -18 14 -24 13 -22 -3 -131 15 -137 23 -3 5 -18 10 -35 11
-16 1 -34 8 -41 14 -6 6 -35 14 -63 18 -28 4 -48 11 -45 16 4 6 -9 10 -27 11
-31 1 -32 1 -8 9 l25 8 -27 1 c-16 1 -28 -4 -28 -11 0 -9 -3 -9 -8 -2 -11 17
-40 24 -46 11 -3 -9 -5 -9 -5 1 -1 7 -15 12 -36 12 -22 0 -38 6 -41 15 -4 10
-20 15 -46 15 -21 0 -37 4 -34 9 8 13 -19 21 -72 21 -26 0 -58 3 -72 7 -24 7
-23 8 10 14 31 6 29 7 -17 8 -43 1 -53 4 -54 19 0 10 -3 12 -6 5 -2 -7 -9 -13
-14 -13 -6 0 -8 4 -5 9 3 5 -15 12 -41 16 -33 5 -42 9 -32 16 10 6 4 9 -21 10
-19 1 -39 3 -45 4 -5 2 -26 4 -45 5 l-35 3 40 6 c37 7 34 8 -37 15 -45 5 -82
14 -89 22 -6 8 -27 14 -45 14 -19 0 -34 4 -34 9 0 5 10 7 23 4 18 -4 19 -3 7
6 -8 6 -28 10 -45 10 -26 0 -27 -2 -10 -9 16 -7 13 -9 -17 -9 -29 -1 -36 2
-32 14 5 11 -2 15 -27 15 -25 0 -30 3 -20 9 12 8 10 11 -10 15 -77 15 -112 25
-81 22 18 -1 35 1 38 6 3 4 -13 8 -35 8 -21 0 -47 3 -57 7 -12 4 -15 3 -10 -5
5 -8 -1 -12 -16 -12 -16 0 -19 3 -10 9 10 6 8 10 -10 14 -12 4 -33 7 -45 7
-12 0 -28 7 -36 15 -9 8 -17 10 -19 5 -5 -15 -68 0 -68 16 0 8 -9 14 -20 14
-11 0 -20 7 -20 15 0 10 -10 15 -30 15 -22 0 -30 5 -31 18 0 10 -3 12 -6 5 -2
-7 -12 -13 -21 -14 -14 0 -13 -2 3 -10 l20 -9 -20 3 c-21 2 -28 27 -10 39 5 4
0 8 -12 8 -12 0 -23 -3 -26 -7 -2 -5 -2 -2 -1 5 2 6 -1 12 -5 12 -5 0 -16 3
-25 6 -9 3 -16 1 -16 -4 0 -6 8 -13 18 -15 16 -4 16 -5 -1 -6 -26 -2 -87 26
-87 40 0 6 -7 8 -16 5 -9 -4 -23 -1 -32 6 -8 7 -18 12 -21 10 -3 -2 -7 2 -10
9 -2 8 2 10 13 6 9 -4 16 -3 16 2 0 5 -9 11 -20 14 -11 3 -20 2 -20 -2 0 -13
-29 -8 -34 6 -3 7 -10 13 -16 13 -6 0 -8 -5 -4 -12 4 -7 3 -8 -4 -4 -7 4 -12
14 -12 22 0 8 -10 14 -24 14 -18 0 -27 8 -34 28 -9 26 -9 27 -16 5z m137 -191
c-1 -2 -15 -1 -32 3 -27 6 -31 11 -31 38 l0 31 33 -34 c18 -19 31 -37 30 -38z
m337 -21 c0 -4 -11 -6 -25 -3 -14 2 -25 6 -25 8 0 2 11 4 25 4 14 0 25 -4 25
-9z m-195 -81 c3 -5 1 -10 -4 -10 -6 0 -11 5 -11 10 0 6 2 10 4 10 3 0 8 -4
11 -10z m50 -120 c-3 -5 -16 -10 -28 -10 -18 0 -19 2 -7 10 20 13 43 13 35 0z
m73 -15 c-3 -3 -18 -7 -34 -10 -16 -2 -53 -9 -83 -14 -76 -15 -97 -12 -31 5
101 27 164 34 148 19z m66 -15 c-30 -12 -120 -24 -112 -15 9 9 71 22 108 23
24 1 24 0 4 -8z m139 -27 c-7 -2 -19 -2 -25 0 -7 3 -2 5 12 5 14 0 19 -2 13
-5z m-63 -13 c-8 -5 -26 -10 -40 -10 -20 0 -22 2 -10 10 8 5 26 10 40 10 20 0
22 -2 10 -10z m85 -10 c-11 -5 -31 -9 -45 -9 -23 0 -23 1 -5 9 11 5 31 9 45 9
23 0 23 -1 5 -9z m60 -20 c-3 -5 -16 -10 -28 -10 -18 0 -19 2 -7 10 20 13 43
13 35 0z m662 4 c-3 -3 -12 -4 -19 -1 -8 3 -5 6 6 6 11 1 17 -2 13 -5z m-604
-21 c-7 -2 -21 -2 -30 0 -10 3 -4 5 12 5 17 0 24 -2 18 -5z m1680 -280 c-7 -2
-19 -2 -25 0 -7 3 -2 5 12 5 14 0 19 -2 13 -5z"/>
<path d="M8870 4000 c0 -5 4 -10 9 -10 6 0 13 5 16 10 3 6 -1 10 -9 10 -9 0
-16 -4 -16 -10z"/>
<path d="M10950 3981 c0 -4 11 -6 25 -3 14 2 25 6 25 8 0 2 -11 4 -25 4 -14 0
-25 -4 -25 -9z"/>
<path d="M10810 3944 c0 -8 5 -12 10 -9 6 4 8 11 5 16 -9 14 -15 11 -15 -7z"/>
<path d="M10720 3942 c0 -19 26 -25 57 -13 27 10 27 11 -6 5 -23 -4 -36 -2
-42 7 -7 11 -9 11 -9 1z"/>
<path d="M4182 3924 c-7 -7 -12 -19 -12 -25 0 -8 5 -7 13 3 6 9 21 18 32 20
20 4 20 4 0 9 -11 3 -26 0 -33 -7z"/>
<path d="M10688 3913 c7 -3 16 -2 19 1 4 3 -2 6 -13 5 -11 0 -14 -3 -6 -6z"/>
<path d="M4221 3893 c-1 -20 33 -43 46 -30 2 3 -5 8 -16 12 -11 3 -22 14 -24
23 -4 13 -5 11 -6 -5z"/>
<path d="M10641 3884 c0 -11 3 -14 6 -6 3 7 2 16 -1 19 -3 4 -6 -2 -5 -13z"/>
<path d="M4370 3866 c0 -2 7 -7 16 -10 8 -3 12 -2 9 4 -6 10 -25 14 -25 6z"/>
<path d="M4518 3783 c7 -3 16 -2 19 1 4 3 -2 6 -13 5 -11 0 -14 -3 -6 -6z"/>
<path d="M10265 3770 c-3 -5 -1 -10 4 -10 6 0 11 5 11 10 0 6 -2 10 -4 10 -3
0 -8 -4 -11 -10z"/>
<path d="M4525 3760 c27 -12 35 -12 35 0 0 6 -12 10 -27 9 -25 0 -26 -1 -8 -9z"/>
<path d="M10178 3763 c-16 -2 -28 -8 -28 -12 0 -4 14 -6 30 -3 17 2 30 8 30
13 0 5 -1 8 -2 8 -2 -1 -15 -4 -30 -6z"/>
<path d="M4600 3750 c8 -5 26 -10 39 -10 32 0 24 6 -19 14 -25 4 -31 3 -20 -4z"/>
<path d="M4828 3693 c6 -2 18 -2 25 0 6 3 1 5 -13 5 -14 0 -19 -2 -12 -5z"/>
<path d="M4888 3663 c7 -3 16 -2 19 1 4 3 -2 6 -13 5 -11 0 -14 -3 -6 -6z"/>
<path d="M4920 3651 c0 -25 6 -27 13 -6 4 8 2 17 -3 20 -6 4 -10 -3 -10 -14z"/>
<path d="M5038 3623 c6 -2 18 -2 25 0 6 3 1 5 -13 5 -14 0 -19 -2 -12 -5z"/>
<path d="M5078 3593 c7 -3 16 -2 19 1 4 3 -2 6 -13 5 -11 0 -14 -3 -6 -6z"/>
<path d="M11526 3545 c18 -14 18 -14 -11 -15 -25 -1 -27 -2 -10 -9 26 -11 195
-20 195 -10 0 9 -118 22 -131 14 -6 -4 -13 2 -16 14 -3 13 -13 21 -26 21 -20
0 -20 0 -1 -15z"/>
<path d="M11585 3550 c3 -5 15 -10 26 -10 11 0 17 5 14 10 -3 6 -15 10 -26 10
-11 0 -17 -4 -14 -10z"/>
<path d="M11205 3540 c3 -5 17 -10 31 -10 14 0 22 4 19 10 -3 6 -17 10 -31 10
-14 0 -22 -4 -19 -10z"/>
<path d="M11280 3540 c0 -5 12 -10 26 -10 14 0 23 4 19 10 -3 6 -15 10 -26 10
-10 0 -19 -4 -19 -10z"/>
<path d="M11668 3543 c7 -3 16 -2 19 1 4 3 -2 6 -13 5 -11 0 -14 -3 -6 -6z"/>
<path d="M11360 3530 c17 -11 127 -13 116 -3 -4 4 -35 8 -69 10 -40 1 -56 -1
-47 -7z"/>
<path d="M9500 3510 c-12 -7 -10 -9 8 -7 12 0 22 5 22 9 0 11 -12 10 -30 -2z"/>
<path d="M9458 3503 c7 -3 16 -2 19 1 4 3 -2 6 -13 5 -11 0 -14 -3 -6 -6z"/>
<path d="M5418 3493 c6 -2 18 -2 25 0 6 3 1 5 -13 5 -14 0 -19 -2 -12 -5z"/>
<path d="M11420 3491 c0 -6 34 -10 75 -10 45 0 73 4 70 10 -4 5 -37 9 -76 9
-38 0 -69 -4 -69 -9z"/>
<path d="M11596 3491 c-7 -11 22 -23 35 -15 5 3 7 10 4 15 -8 12 -32 12 -39 0z"/>
<path d="M11688 3473 c7 -3 16 -2 19 1 4 3 -2 6 -13 5 -11 0 -14 -3 -6 -6z"/>
<path d="M4265 3463 c-16 -3 -34 -9 -40 -15 -11 -11 65 -2 100 13 18 7 17 8
-5 7 -14 -1 -38 -3 -55 -5z"/>
<path d="M5528 3463 c7 -3 16 -2 19 1 4 3 -2 6 -13 5 -11 0 -14 -3 -6 -6z"/>
<path d="M11140 3459 c0 -12 12 -16 78 -23 32 -3 50 -1 47 4 -4 6 -21 10 -40
10 -19 0 -45 4 -59 10 -17 6 -26 6 -26 -1z"/>
<path d="M11385 3460 c3 -5 11 -10 16 -10 6 0 7 5 4 10 -3 6 -11 10 -16 10 -6
0 -7 -4 -4 -10z"/>
<path d="M4375 3450 c-7 -12 12 -12 40 0 18 8 17 9 -7 9 -15 1 -30 -3 -33 -9z"/>
<path d="M11465 3450 c45 -11 95 -11 95 0 0 6 -27 9 -62 9 -50 -1 -57 -3 -33
-9z"/>
<path d="M11600 3440 c20 -13 40 -13 40 0 0 6 -12 10 -27 10 -22 0 -25 -2 -13
-10z"/>
<path d="M4285 3430 c-7 -11 9 -11 45 0 24 8 24 8 -7 9 -17 1 -35 -3 -38 -9z"/>
<path d="M4440 3429 c0 -5 5 -7 10 -4 6 3 10 8 10 11 0 2 -4 4 -10 4 -5 0 -10
-5 -10 -11z"/>
<path d="M5638 3433 c7 -3 16 -2 19 1 4 3 -2 6 -13 5 -11 0 -14 -3 -6 -6z"/>
<path d="M11305 3430 c27 -12 35 -12 35 0 0 6 -12 10 -27 9 -25 0 -26 -1 -8
-9z"/>
<path d="M11688 3433 c7 -3 16 -2 19 1 4 3 -2 6 -13 5 -11 0 -14 -3 -6 -6z"/>
<path d="M4235 3420 c-19 -8 -19 -9 2 -9 12 -1 25 4 28 9 7 12 -2 12 -30 0z"/>
<path d="M4370 3420 c-13 -8 -13 -10 2 -10 9 0 20 5 23 10 8 13 -5 13 -25 0z"/>
<path d="M4520 3420 c-13 -8 -12 -10 3 -10 9 0 17 5 17 10 0 12 -1 12 -20 0z"/>
<path d="M11080 3426 c0 -2 9 -6 20 -9 11 -3 20 -1 20 4 0 5 -9 9 -20 9 -11 0
-20 -2 -20 -4z"/>
<path d="M11383 3419 c14 -8 22 -8 30 0 8 8 3 11 -18 11 -26 -1 -28 -2 -12
-11z"/>
<path d="M11454 3415 c19 -14 36 -12 36 6 0 5 -12 9 -27 9 -27 -1 -27 -1 -9
-15z"/>
<path d="M10948 3413 c7 -3 16 -2 19 1 4 3 -2 6 -13 5 -11 0 -14 -3 -6 -6z"/>
<path d="M11166 3404 c20 -16 10 -16 -131 2 -28 4 -35 2 -25 -4 19 -12 180
-31 180 -21 0 4 3 14 6 23 5 12 0 16 -22 16 -27 0 -27 -1 -8 -16z"/>
<path d="M11216 3411 c-3 -5 7 -11 22 -14 31 -6 37 -3 27 12 -8 13 -42 14 -49
2z"/>
<path d="M11534 3410 c17 -6 36 -5 45 0 11 7 3 9 -29 9 -42 -1 -43 -1 -16 -9z"/>
<path d="M11605 3410 c3 -5 13 -10 21 -10 8 0 14 5 14 10 0 6 -9 10 -21 10
-11 0 -17 -4 -14 -10z"/>
<path d="M4295 3400 c-4 -7 3 -8 22 -4 38 9 42 14 10 14 -14 0 -29 -5 -32 -10z"/>
<path d="M4445 3400 c-19 -8 -19 -9 2 -9 12 -1 25 4 28 9 7 12 -2 12 -30 0z"/>
<path d="M4585 3400 c-8 -13 15 -13 35 0 12 8 11 10 -7 10 -12 0 -25 -4 -28
-10z"/>
<path d="M4748 3403 c7 -3 16 -2 19 1 4 3 -2 6 -13 5 -11 0 -14 -3 -6 -6z"/>
<path d="M5698 3403 c6 -2 18 -2 25 0 6 3 1 5 -13 5 -14 0 -19 -2 -12 -5z"/>
<path d="M10705 3390 c3 -5 15 -10 26 -10 11 0 17 5 14 10 -3 6 -15 10 -26 10
-11 0 -17 -4 -14 -10z"/>
<path d="M10841 3396 c12 -10 59 -15 59 -6 0 5 -14 10 -32 10 -17 0 -29 -2
-27 -4z"/>
<path d="M11298 3393 c12 -2 30 -2 40 0 9 3 -1 5 -23 4 -22 0 -30 -2 -17 -4z"/>
<path d="M11380 3390 c20 -13 40 -13 40 0 0 6 -12 10 -27 10 -22 0 -25 -2 -13
-10z"/>
<path d="M4668 3383 c6 -2 18 -2 25 0 6 3 1 5 -13 5 -14 0 -19 -2 -12 -5z"/>
<path d="M10774 3382 c9 -15 48 -23 43 -9 -2 7 -14 14 -26 15 -13 2 -21 -1
-17 -6z"/>
<path d="M10944 3375 c10 -8 23 -12 28 -9 14 9 -2 24 -25 24 -21 -1 -21 -1 -3
-15z"/>
<path d="M10621 3376 c12 -10 60 -16 54 -6 -3 5 -18 10 -32 10 -15 0 -24 -2
-22 -4z"/>
<path d="M11005 3370 c3 -5 15 -10 26 -10 11 0 17 5 14 10 -3 6 -15 10 -26 10
-11 0 -17 -4 -14 -10z"/>
<path d="M10545 3362 c6 -5 21 -13 34 -17 17 -5 22 -4 19 6 -3 8 -18 15 -34
17 -19 2 -25 0 -19 -6z"/>
<path d="M10706 3361 c-3 -5 4 -11 16 -14 25 -7 33 -3 23 12 -8 13 -32 14 -39
2z"/>
<path d="M10850 3360 c20 -13 63 -13 55 0 -3 6 -21 10 -38 10 -24 0 -28 -3
-17 -10z"/>
<path d="M4968 3353 c6 -2 18 -2 25 0 6 3 1 5 -13 5 -14 0 -19 -2 -12 -5z"/>
<path d="M10775 3350 c-3 -5 -3 -10 2 -10 4 0 19 -3 33 -7 22 -6 24 -5 11 10
-15 19 -37 22 -46 7z"/>
<path d="M11328 3353 c7 -3 16 -2 19 1 4 3 -2 6 -13 5 -11 0 -14 -3 -6 -6z"/>
<path d="M4910 3340 c0 -5 5 -10 11 -10 5 0 7 5 4 10 -3 6 -8 10 -11 10 -2 0
-4 -4 -4 -10z"/>
<path d="M5968 3343 c7 -3 16 -2 19 1 4 3 -2 6 -13 5 -11 0 -14 -3 -6 -6z"/>
<path d="M10625 3340 c3 -5 17 -10 31 -10 14 0 22 4 19 10 -3 6 -17 10 -31 10
-14 0 -22 -4 -19 -10z"/>
<path d="M10955 3340 c3 -5 11 -10 16 -10 6 0 7 5 4 10 -3 6 -11 10 -16 10 -6
0 -7 -4 -4 -10z"/>
<path d="M11175 3340 c3 -5 13 -10 21 -10 8 0 12 5 9 10 -3 6 -13 10 -21 10
-8 0 -12 -4 -9 -10z"/>
<path d="M11408 3343 c7 -3 16 -2 19 1 4 3 -2 6 -13 5 -11 0 -14 -3 -6 -6z"/>
<path d="M11470 3346 c0 -2 7 -6 15 -10 8 -3 15 -1 15 4 0 6 -7 10 -15 10 -8
0 -15 -2 -15 -4z"/>
<path d="M11235 3330 c28 -12 47 -12 40 0 -3 6 -18 10 -33 9 -24 0 -25 -1 -7
-9z"/>
<path d="M11538 3333 c6 -2 18 -2 25 0 6 3 1 5 -13 5 -14 0 -19 -2 -12 -5z"/>
<path d="M4298 3323 c7 -3 16 -2 19 1 4 3 -2 6 -13 5 -11 0 -14 -3 -6 -6z"/>
<path d="M4438 3323 c6 -2 18 -2 25 0 6 3 1 5 -13 5 -14 0 -19 -2 -12 -5z"/>
<path d="M5135 3320 c-3 -5 1 -10 9 -10 9 0 16 5 16 10 0 6 -4 10 -9 10 -6 0
-13 -4 -16 -10z"/>
<path d="M11038 3323 c7 -3 16 -2 19 1 4 3 -2 6 -13 5 -11 0 -14 -3 -6 -6z"/>
<path d="M11318 3323 c6 -2 18 -2 25 0 6 3 1 5 -13 5 -14 0 -19 -2 -12 -5z"/>
<path d="M11618 3323 c6 -2 18 -2 25 0 6 3 1 5 -13 5 -14 0 -19 -2 -12 -5z"/>
<path d="M11108 3313 c7 -3 16 -2 19 1 4 3 -2 6 -13 5 -11 0 -14 -3 -6 -6z"/>
<path d="M11408 3313 c7 -3 16 -2 19 1 4 3 -2 6 -13 5 -11 0 -14 -3 -6 -6z"/>
<path d="M10958 3303 c7 -3 16 -2 19 1 4 3 -2 6 -13 5 -11 0 -14 -3 -6 -6z"/>
<path d="M11180 3300 c19 -13 30 -13 30 0 0 6 -10 10 -22 10 -19 0 -20 -2 -8
-10z"/>
<path d="M11030 3290 c8 -5 22 -10 30 -10 13 0 13 1 0 10 -8 5 -22 10 -30 10
-13 0 -13 -1 0 -10z"/>
<path d="M11248 3293 c6 -2 18 -2 25 0 6 3 1 5 -13 5 -14 0 -19 -2 -12 -5z"/>
<path d="M10730 3280 c20 -13 33 -13 25 0 -3 6 -14 10 -23 10 -15 0 -15 -2 -2
-10z"/>
<path d="M10880 3280 c19 -13 30 -13 30 0 0 6 -10 10 -22 10 -19 0 -20 -2 -8
-10z"/>
<path d="M11100 3280 c19 -13 30 -13 30 0 0 6 -10 10 -22 10 -19 0 -20 -2 -8
-10z"/>
<path d="M8768 3273 c7 -3 16 -2 19 1 4 3 -2 6 -13 5 -11 0 -14 -3 -6 -6z"/>
<path d="M10595 3270 c3 -5 8 -10 11 -10 2 0 4 5 4 10 0 6 -5 10 -11 10 -5 0
-7 -4 -4 -10z"/>
<path d="M10948 3273 c7 -3 16 -2 19 1 4 3 -2 6 -13 5 -11 0 -14 -3 -6 -6z"/>
<path d="M10798 3263 c6 -2 18 -2 25 0 6 3 1 5 -13 5 -14 0 -19 -2 -12 -5z"/>
<path d="M10668 3253 c7 -3 16 -2 19 1 4 3 -2 6 -13 5 -11 0 -14 -3 -6 -6z"/>
<path d="M6318 3233 c7 -3 16 -2 19 1 4 3 -2 6 -13 5 -11 0 -14 -3 -6 -6z"/>
<path d="M10050 3220 c19 -13 30 -13 30 0 0 6 -10 10 -22 10 -19 0 -20 -2 -8
-10z"/>
<path d="M10217 3219 c7 -7 15 -10 18 -7 3 3 -2 9 -12 12 -14 6 -15 5 -6 -5z"/>
<path d="M5795 3190 c-3 -5 3 -10 14 -10 12 0 21 5 21 10 0 6 -6 10 -14 10 -8
0 -18 -4 -21 -10z"/>
<path d="M9835 3190 c11 -5 27 -9 35 -9 13 -1 13 0 0 9 -8 5 -24 9 -35 9 l-20
0 20 -9z"/>
<path d="M9988 3193 c7 -3 16 -2 19 1 4 3 -2 6 -13 5 -11 0 -14 -3 -6 -6z"/>
<path d="M10045 3180 c11 -5 27 -9 35 -9 13 -1 13 0 0 9 -8 5 -24 9 -35 9
l-20 0 20 -9z"/>
<path d="M9750 3170 c20 -13 43 -13 35 0 -3 6 -16 10 -28 10 -18 0 -19 -2 -7
-10z"/>
<path d="M9595 3160 c28 -12 47 -12 40 0 -3 6 -18 10 -33 9 -24 0 -25 -1 -7
-9z"/>
<path d="M8398 3153 c7 -3 16 -2 19 1 4 3 -2 6 -13 5 -11 0 -14 -3 -6 -6z"/>
<path d="M9440 3150 c20 -13 40 -13 40 0 0 6 -12 10 -27 10 -22 0 -25 -2 -13
-10z"/>
<path d="M9800 3156 c0 -8 51 -13 56 -5 3 5 -9 9 -25 9 -17 0 -31 -2 -31 -4z"/>
<path d="M6638 3143 c7 -3 16 -2 19 1 4 3 -2 6 -13 5 -11 0 -14 -3 -6 -6z"/>
<path d="M9678 3143 c7 -3 16 -2 19 1 4 3 -2 6 -13 5 -11 0 -14 -3 -6 -6z"/>
<path d="M9525 3130 c11 -5 38 -8 60 -8 l40 0 -40 9 c-22 4 -49 8 -60 8 l-20
0 20 -9z"/>
<path d="M9355 3120 c28 -12 47 -12 40 0 -3 6 -18 10 -33 9 -24 0 -25 -1 -7
-9z"/>
<path d="M9425 3110 c28 -12 45 -12 45 0 0 6 -15 10 -32 9 -28 0 -30 -2 -13
-9z"/>
<path d="M9260 3100 c0 -5 12 -10 28 -10 21 0 24 2 12 10 -20 13 -40 13 -40 0z"/>
<path d="M7420 2959 c0 -5 14 -9 32 -9 37 0 34 7 -5 14 -15 2 -27 0 -27 -5z"/>
<path d="M7505 2959 c-16 -6 -14 -8 13 -8 33 -1 41 4 20 12 -7 2 -22 1 -33 -4z"/>
<path d="M7565 2960 c3 -5 8 -10 11 -10 2 0 4 5 4 10 0 6 -5 10 -11 10 -5 0
-7 -4 -4 -10z"/>
<path d="M7600 2960 c-13 -8 -12 -10 3 -10 9 0 17 5 17 10 0 12 -1 12 -20 0z"/>
<path d="M12480 1520 c0 -5 5 -10 10 -10 6 0 10 5 10 10 0 6 -4 10 -10 10 -5
0 -10 -4 -10 -10z"/>
<path d="M12533 1519 c14 -8 22 -8 30 0 8 8 3 11 -18 11 -26 -1 -28 -2 -12
-11z"/>
<path d="M12598 1523 c7 -3 16 -2 19 1 4 3 -2 6 -13 5 -11 0 -14 -3 -6 -6z"/>
<path d="M12445 1510 c4 -6 11 -8 16 -5 14 9 11 15 -7 15 -8 0 -12 -5 -9 -10z"/>
<path d="M12745 1480 c-3 -5 1 -10 9 -10 9 0 16 5 16 10 0 6 -4 10 -9 10 -6 0
-13 -4 -16 -10z"/>
<path d="M12585 1471 c-10 -17 32 -22 61 -6 l29 15 -42 0 c-23 0 -44 -4 -48
-9z"/>
<path d="M12483 1463 c-75 -6 -66 -20 12 -19 42 1 66 5 70 14 2 7 -3 11 -13
10 -9 -1 -41 -3 -69 -5z"/>
<path d="M12385 1450 c-3 -5 3 -10 14 -10 12 0 21 5 21 10 0 6 -6 10 -14 10
-8 0 -18 -4 -21 -10z"/>
<path d="M12310 1440 c0 -5 5 -10 10 -10 6 0 10 5 10 10 0 6 -4 10 -10 10 -5
0 -10 -4 -10 -10z"/>
<path d="M12255 1430 c-3 -5 -1 -10 4 -10 6 0 11 5 11 10 0 6 -2 10 -4 10 -3
0 -8 -4 -11 -10z"/>
<path d="M12630 1420 c-162 -9 -331 -29 -345 -43 -6 -6 13 -6 52 -2 34 4 97 7
140 7 43 0 82 3 88 6 5 4 32 7 60 9 27 2 70 5 95 7 25 3 48 5 53 5 4 1 7 6 7
11 0 6 -3 9 -7 8 -5 0 -69 -4 -143 -8z"/>
<path d="M12815 1420 c4 -6 11 -8 16 -5 14 9 11 15 -7 15 -8 0 -12 -5 -9 -10z"/>
<path d="M2738 1403 c7 -3 16 -2 19 1 4 3 -2 6 -13 5 -11 0 -14 -3 -6 -6z"/>
<path d="M12233 1372 c-24 -4 -32 -22 -10 -22 15 0 43 18 37 22 -3 2 -15 2
-27 0z"/>
<path d="M2495 1360 c3 -5 8 -10 11 -10 2 0 4 5 4 10 0 6 -5 10 -11 10 -5 0
-7 -4 -4 -10z"/>
<path d="M2565 1360 c3 -5 15 -10 26 -10 10 0 19 5 19 10 0 6 -12 10 -26 10
-14 0 -23 -4 -19 -10z"/>
<path d="M2640 1360 c0 -5 12 -10 28 -10 21 0 24 2 12 10 -20 13 -40 13 -40 0z"/>
<path d="M12180 1360 c0 -5 5 -10 11 -10 5 0 7 5 4 10 -3 6 -8 10 -11 10 -2 0
-4 -4 -4 -10z"/>
<path d="M12485 1352 c-55 -7 -116 -14 -135 -16 -62 -7 -140 -27 -140 -37 0
-11 43 -12 54 -2 4 4 39 8 79 9 40 2 74 3 77 5 5 2 57 8 105 12 17 1 35 5 42
10 6 4 22 3 36 -2 15 -6 28 -6 34 0 5 5 38 11 74 13 82 5 79 4 79 15 0 13
-183 9 -305 -7z"/>
<path d="M12810 1366 c0 -2 7 -6 15 -10 8 -3 15 -1 15 4 0 6 -7 10 -15 10 -8
0 -15 -2 -15 -4z"/>
<path d="M12885 1360 c3 -5 10 -10 16 -10 5 0 9 5 9 10 0 6 -7 10 -16 10 -8 0
-12 -4 -9 -10z"/>
<path d="M2710 1352 c0 -12 97 -20 113 -10 7 4 -6 8 -28 8 -22 0 -50 3 -62 6
-13 4 -23 2 -23 -4z"/>
<path d="M2878 1333 c7 -3 16 -2 19 1 4 3 -2 6 -13 5 -11 0 -14 -3 -6 -6z"/>
<path d="M2498 1303 c6 -2 18 -2 25 0 6 3 1 5 -13 5 -14 0 -19 -2 -12 -5z"/>
<path d="M2570 1301 c0 -4 11 -6 25 -3 14 2 25 6 25 8 0 2 -11 4 -25 4 -14 0
-25 -4 -25 -9z"/>
<path d="M2635 1300 c3 -5 17 -10 31 -10 13 0 24 5 24 10 0 6 -14 10 -31 10
-17 0 -28 -4 -24 -10z"/>
<path d="M12505 1303 c-55 -6 -160 -23 -205 -33 -25 -5 -58 -12 -73 -15 -50
-10 -17 -25 44 -20 32 2 59 1 59 -3 0 -9 -57 -24 -183 -48 -52 -10 -86 -22
-84 -28 4 -14 47 -21 47 -8 0 5 16 8 35 6 19 -1 37 1 40 6 3 5 19 7 35 5 16
-2 32 0 35 6 4 5 18 9 33 9 55 0 3 -20 -128 -50 -74 -16 -142 -30 -152 -30 -9
0 -19 -4 -22 -9 -7 -11 117 -10 125 2 5 8 25 9 59 6 8 -1 25 1 38 5 12 4 22 3
22 -2 0 -5 -26 -14 -57 -21 -81 -18 -91 -20 -148 -35 -27 -8 -67 -17 -87 -20
-46 -8 -51 -28 -5 -22 17 3 32 5 32 6 0 1 23 3 52 5 28 1 66 7 85 13 18 6 40
10 48 10 8 -1 26 2 40 7 17 5 22 4 15 -3 -13 -13 -217 -69 -305 -83 -38 -7
-70 -15 -70 -20 0 -12 156 2 200 18 8 3 28 7 44 9 16 1 32 8 36 14 5 9 13 9
25 3 23 -13 -148 -68 -262 -84 -90 -14 -116 -24 -95 -37 7 -5 43 -1 83 9 39
10 77 15 85 12 8 -3 14 -1 14 4 0 4 15 9 33 10 17 1 46 5 62 9 52 11 14 -11
-50 -30 -33 -10 -74 -22 -92 -27 -30 -9 -113 -25 -178 -35 -33 -5 -58 -23 -35
-25 8 -1 20 0 25 1 6 1 26 4 45 6 19 1 72 9 118 17 45 8 82 12 82 9 0 -2 7 2
17 9 14 12 16 12 12 0 -5 -13 -57 -30 -196 -65 -29 -7 -55 -11 -57 -8 -3 2
-19 -1 -37 -8 -25 -11 -28 -15 -15 -22 9 -5 22 -6 29 -1 6 4 28 9 47 10 19 1
49 5 65 7 17 3 50 8 75 12 25 4 51 12 59 18 11 9 13 8 9 -4 -6 -19 -274 -89
-508 -132 -75 -14 -91 -31 -20 -23 30 3 59 9 65 13 5 4 25 7 43 6 17 -1 32 2
32 7 0 5 11 7 25 3 14 -3 31 -2 38 4 7 6 28 10 46 10 18 -1 36 3 39 8 4 5 18
10 32 11 72 7 103 13 116 24 11 9 14 8 14 -4 0 -8 -9 -17 -20 -20 -11 -3 -23
-6 -25 -7 -30 -9 -159 -43 -190 -50 -22 -5 -85 -18 -140 -30 -127 -26 -136
-30 -110 -40 11 -4 30 -4 42 1 13 5 30 6 38 3 8 -4 15 -1 15 6 0 7 8 10 20 7
11 -3 23 -1 26 4 3 5 10 7 15 4 5 -4 15 -3 21 2 7 4 25 6 40 4 16 -1 28 2 28
8 0 6 15 11 34 11 19 0 38 5 41 11 4 6 20 9 36 7 17 -1 33 2 37 8 4 6 18 8 32
4 l24 -6 -29 -12 c-36 -14 -165 -48 -258 -68 -38 -9 -80 -19 -94 -25 -13 -5
-37 -9 -53 -9 -16 0 -31 -4 -35 -9 -7 -12 35 -26 44 -15 3 5 17 10 31 12 14 1
32 5 40 9 8 3 25 5 38 4 13 -2 28 2 35 7 7 5 19 9 27 10 49 1 116 17 123 29 6
9 13 10 25 4 11 -6 29 -4 51 5 39 17 44 17 36 5 -3 -6 -45 -22 -93 -37 -48
-15 -91 -29 -97 -31 -5 -1 -41 -9 -80 -17 -38 -8 -88 -19 -110 -25 -95 -24
-388 -83 -402 -80 -24 4 -53 -2 -53 -12 0 -10 103 -5 121 7 4 2 38 7 75 10 38
3 74 11 81 16 7 5 21 7 32 3 11 -3 30 1 43 9 13 8 32 15 43 14 11 -1 46 4 78
11 31 7 70 14 85 16 15 2 43 9 62 15 43 12 83 13 76 1 -3 -5 -34 -16 -68 -24
-136 -34 -314 -77 -333 -80 -11 -2 -27 -7 -35 -10 -8 -3 -71 -13 -140 -22
-136 -18 -197 -43 -75 -30 39 4 77 8 85 9 8 2 43 7 78 11 34 4 62 11 62 15 0
9 60 21 113 21 20 1 37 4 37 8 0 4 19 8 42 10 23 1 45 4 50 7 4 3 17 7 28 9
20 4 28 -9 11 -19 -12 -8 -271 -73 -291 -74 -8 -1 -35 -6 -59 -12 -24 -6 -57
-12 -73 -14 -16 -2 -32 -7 -36 -10 -9 -10 20 -26 33 -18 5 3 23 7 38 7 15 0
31 6 35 12 4 7 16 12 27 12 46 0 115 8 122 14 3 4 24 7 45 7 21 0 38 4 38 9 0
4 30 11 67 15 37 4 73 12 80 18 7 5 19 8 26 5 7 -3 21 1 32 9 10 8 28 14 39
14 36 0 4 -17 -74 -40 -151 -45 -176 -52 -220 -60 -47 -9 -106 -22 -205 -45
-130 -31 -653 -109 -782 -117 -18 -1 -33 -6 -33 -11 0 -5 32 -6 73 -2 39 4 86
8 104 8 17 1 34 5 38 9 4 4 25 5 46 2 25 -4 39 -2 39 5 0 6 10 11 23 10 36 0
111 8 127 14 8 3 22 5 30 6 38 0 119 11 164 21 27 6 64 11 83 12 19 1 36 4 38
8 2 4 18 6 36 5 17 -1 33 3 35 10 3 7 21 10 44 8 22 -2 40 1 40 6 0 6 32 13
70 17 39 4 73 11 76 15 3 5 21 9 40 9 19 0 34 5 34 10 0 6 14 10 30 10 92 0
-25 -45 -210 -80 -25 -5 -65 -14 -90 -20 -91 -23 -238 -51 -350 -66 -19 -3
-66 -11 -105 -19 -38 -8 -88 -15 -110 -15 -22 0 -47 -5 -55 -11 -11 -7 -6 -9
20 -7 19 1 41 -1 47 -5 7 -4 26 -1 42 8 16 8 40 15 53 14 13 0 39 3 60 6 20 3
56 7 80 9 69 7 132 18 143 26 6 4 21 6 34 4 13 -3 29 0 35 5 6 5 24 7 39 5 15
-1 30 3 33 9 2 7 19 12 37 11 17 0 37 4 44 9 7 5 18 7 25 5 7 -3 32 1 55 8 28
9 45 9 49 3 8 -14 10 -14 -91 -38 -154 -37 -235 -54 -370 -75 -166 -27 -268
-46 -273 -51 -3 -2 27 -4 67 -4 39 1 71 4 71 9 0 4 10 8 23 8 12 0 69 8 127
16 222 34 240 38 240 46 0 4 13 6 30 4 16 -2 32 1 35 6 4 6 11 8 16 4 5 -3 16
-1 23 6 8 6 35 12 60 14 25 1 49 6 53 9 10 10 65 8 59 -2 -3 -5 -36 -14 -73
-21 -38 -7 -79 -17 -93 -22 -14 -6 -34 -12 -45 -14 -11 -2 -64 -14 -117 -27
-54 -14 -99 -22 -102 -20 -2 3 -13 0 -23 -6 -14 -9 2 -11 72 -9 50 2 93 6 96
11 3 4 19 9 36 11 17 3 41 9 52 16 12 6 25 8 30 5 5 -3 21 0 35 6 23 11 66 5
53 -7 -8 -8 -121 -33 -129 -28 -3 2 -9 0 -13 -6 -4 -6 22 -10 74 -10 44 0 83
5 86 10 3 6 15 10 26 10 11 0 17 -4 14 -10 -4 -7 175 -10 530 -10 471 0 536 2
541 15 5 12 10 13 20 4 7 -6 28 -9 46 -8 18 1 44 -1 57 -5 15 -5 26 -4 31 3 4
8 14 9 31 3 30 -12 287 -14 294 -3 2 5 -57 11 -131 15 -75 4 -147 11 -161 17
-13 5 -43 9 -66 9 -23 0 -48 4 -56 9 -25 16 27 24 62 10 22 -9 32 -10 34 -2 3
7 14 9 31 4 40 -11 197 -8 200 4 1 6 -17 11 -40 12 -114 4 -273 25 -285 36 -2
3 8 7 22 9 14 3 28 1 31 -3 7 -12 44 -11 44 1 0 6 10 5 28 -1 32 -13 121 -18
128 -8 2 4 17 4 33 -1 15 -4 35 -4 42 1 8 5 29 6 47 3 20 -4 32 -2 32 5 0 6
-8 11 -17 12 -10 0 -55 2 -101 4 -45 2 -108 9 -139 15 -31 5 -71 10 -89 10
-17 0 -37 6 -43 14 -9 11 -6 14 16 14 16 0 34 -5 41 -11 9 -7 16 -7 24 1 7 7
19 7 41 -1 22 -7 32 -7 35 1 2 7 11 8 26 2 22 -8 283 -6 292 2 2 3 -64 9 -148
13 -84 4 -175 10 -202 14 -64 8 -74 30 -14 30 24 0 50 0 58 1 8 0 63 -1 123
-4 83 -4 107 -2 107 8 0 9 -16 13 -52 14 -52 0 -231 16 -315 28 -70 10 -51 27
20 18 91 -10 170 -11 184 -1 7 5 19 4 30 -1 10 -5 38 -8 63 -6 25 2 49 3 53 3
5 1 5 6 2 11 -3 6 -43 10 -88 11 -45 0 -113 5 -152 10 -38 5 -89 12 -112 15
-24 4 -41 9 -38 14 5 9 102 6 134 -5 12 -3 28 -2 35 4 7 6 16 8 19 4 9 -8 208
-12 221 -5 6 3 32 4 58 3 30 -2 48 2 48 9 0 7 -30 11 -92 11 -122 -1 -325 13
-334 22 -4 4 -2 13 4 19 9 9 18 9 38 -1 18 -8 30 -8 39 -1 7 6 19 8 26 5 8 -2
54 -6 102 -8 64 -2 91 0 99 10 6 7 9 13 7 13 -2 1 -38 3 -79 5 -161 7 -318 24
-324 33 -2 4 60 6 137 5 78 -1 151 -2 162 -3 11 0 29 0 40 0 11 -1 27 -1 35
-1 8 1 31 1 50 1 19 0 41 4 48 9 8 5 -47 11 -130 15 -209 10 -258 16 -258 33
0 11 12 13 61 8 34 -3 66 -8 70 -11 5 -3 15 -2 22 3 6 4 50 9 97 9 127 2 140
3 140 12 0 4 -53 8 -118 8 -132 2 -352 24 -352 35 0 15 21 20 35 9 9 -7 28
-10 43 -7 16 3 55 2 88 -2 32 -5 64 -5 69 -1 6 4 43 6 83 5 39 -2 74 1 77 5 5
7 -44 13 -232 26 -91 6 -117 18 -69 30 13 3 34 1 45 -6 12 -6 21 -7 21 -2 0 4
51 9 113 9 139 1 137 1 137 12 0 5 -46 10 -102 10 -132 2 -224 13 -218 26 3 6
63 10 153 9 102 -1 147 2 147 10 0 7 -30 12 -83 13 -119 4 -211 13 -228 24
-18 11 -14 12 120 13 82 1 115 5 118 14 4 9 -15 12 -71 12 -43 0 -78 5 -82 11
-3 6 -17 8 -30 5 -28 -7 -124 3 -124 13 0 4 70 6 155 5 116 -1 155 2 155 11 0
14 -86 25 -196 25 -57 0 -74 3 -74 14 0 11 25 14 135 11 118 -2 159 4 143 20
-2 3 -56 7 -119 10 -138 6 -199 14 -199 24 0 10 122 7 138 -3 7 -4 15 -1 18 8
3 9 10 13 15 10 13 -8 128 -8 136 -1 13 14 -6 16 -146 22 -146 5 -202 17 -148
30 16 4 33 3 41 -4 7 -6 15 -8 19 -5 5 5 162 15 260 16 15 1 27 5 27 9 0 5
-48 10 -107 11 -183 2 -178 2 -178 18 0 12 14 15 78 13 44 -2 87 2 96 7 11 6
22 5 28 -1 6 -6 16 -4 29 6 17 13 11 14 -67 15 -121 0 -239 11 -233 22 3 5 20
8 37 8 41 -1 181 9 255 18 6 1 12 5 12 10 0 4 -60 6 -132 5 -73 -1 -143 1
-156 4 -45 11 -6 22 93 26 55 2 108 8 118 12 9 4 23 5 30 2 8 -3 20 -1 28 4 8
5 -57 9 -168 9 -118 0 -184 4 -188 11 -11 17 2 22 31 12 25 -8 149 1 184 14 8
3 41 6 72 7 31 0 60 4 64 9 7 7 -352 8 -411 0z m12 -59 c-9 -9 -28 6 -21 18 4
6 10 6 17 -1 6 -6 8 -13 4 -17z m-127 -5 c0 -5 -9 -9 -20 -9 -22 0 -27 16 -7
23 15 5 27 -1 27 -14z m203 -36 c-7 -2 -19 -2 -25 0 -7 3 -2 5 12 5 14 0 19
-2 13 -5z m-250 -18 c-3 -9 -8 -14 -10 -11 -3 3 -2 9 2 15 9 16 15 13 8 -4z
m252 -85 c3 -5 1 -10 -4 -10 -6 0 -11 5 -11 10 0 6 2 10 4 10 3 0 8 -4 11 -10z
m85 0 c8 -5 12 -12 8 -15 -9 -9 -59 6 -52 16 7 12 25 11 44 -1z m-20 -186 c0
-2 -9 -4 -21 -4 -11 0 -18 4 -14 10 5 8 35 3 35 -6z m-10 -182 c-25 -4 -35 2
-26 17 5 7 13 7 27 -2 20 -12 20 -12 -1 -15z m-680 -17 c0 -8 -52 -26 -58 -20
-3 2 6 9 19 14 28 11 39 13 39 6z m680 -35 c0 -5 -2 -10 -4 -10 -3 0 -8 5 -11
10 -3 6 -1 10 4 10 6 0 11 -4 11 -10z m-735 -41 c-7 -11 -35 -12 -35 -1 0 4 9
8 20 9 11 1 18 -2 15 -8z m730 -79 c3 -5 -1 -10 -9 -10 -9 0 -16 5 -16 10 0 6
4 10 9 10 6 0 13 -4 16 -10z m-765 -30 c0 -5 -5 -10 -11 -10 -5 0 -7 5 -4 10
3 6 8 10 11 10 2 0 4 -4 4 -10z m-55 -20 c-3 -5 -11 -10 -16 -10 -6 0 -7 5 -4
10 3 6 11 10 16 10 6 0 7 -4 4 -10z m-60 -20 c-3 -5 -14 -10 -23 -10 -15 0
-15 2 -2 10 20 13 33 13 25 0z m815 -40 c0 -5 -7 -10 -16 -10 -8 0 -12 5 -9
10 3 6 10 10 16 10 5 0 9 -4 9 -10z m95 -11 c5 -5 -4 -9 -23 -9 -22 0 -32 5
-32 16 0 11 6 14 23 9 12 -4 26 -11 32 -16z m-925 2 c0 -6 -4 -13 -10 -16 -5
-3 -10 1 -10 9 0 9 5 16 10 16 6 0 10 -4 10 -9z m-30 -22 c0 -9 -62 -21 -69
-14 -3 4 1 10 8 14 15 10 61 9 61 0z m-89 -23 c-16 -19 -51 -27 -51 -12 0 19
11 26 38 26 20 0 22 -3 13 -14z m944 -66 c3 -6 -4 -10 -17 -10 -18 0 -20 2 -8
10 19 12 18 12 25 0z m-940 -40 c3 -5 -1 -10 -10 -10 -9 0 -13 5 -10 10 3 6 8
10 10 10 2 0 7 -4 10 -10z m-35 -10 c0 -5 -4 -10 -10 -10 -5 0 -10 5 -10 10 0
6 5 10 10 10 6 0 10 -4 10 -10z m980 -20 c0 -5 -2 -10 -4 -10 -3 0 -8 5 -11
10 -3 6 -1 10 4 10 6 0 11 -4 11 -10z m95 0 c4 -6 -8 -10 -30 -10 -22 0 -34 4
-30 10 3 6 17 10 30 10 13 0 27 -4 30 -10z m-1000 -10 c-3 -5 -11 -10 -16 -10
-6 0 -7 5 -4 10 3 6 11 10 16 10 6 0 7 -4 4 -10z m-117 -41 c-18 -12 -48 -11
-48 2 0 5 4 8 9 4 5 -3 12 -1 16 4 3 6 13 7 21 4 13 -5 13 -7 2 -14z m-65 -19
c-4 -4 -20 -10 -35 -14 -20 -5 -28 -3 -28 7 0 21 7 24 41 19 17 -2 27 -8 22
-12z m1082 10 c3 -5 2 -10 -4 -10 -5 0 -13 5 -16 10 -3 6 -2 10 4 10 5 0 13
-4 16 -10z m-983 -32 c-6 -6 -15 -8 -19 -4 -4 4 -1 11 7 16 19 12 27 3 12 -12z
m-53 -19 c-18 -11 -39 -11 -39 0 0 11 31 20 44 13 4 -2 2 -8 -5 -13z m1021 1
c0 -5 -5 -10 -11 -10 -5 0 -7 5 -4 10 3 6 8 10 11 10 2 0 4 -4 4 -10z m-970
-30 c0 -5 -4 -10 -10 -10 -5 0 -10 5 -10 10 0 6 5 10 10 10 6 0 10 -4 10 -10z
m-75 -31 c-4 -5 -17 -9 -30 -9 -13 0 -27 -4 -30 -10 -3 -5 -14 -10 -23 -10
-28 1 17 30 45 30 13 0 23 5 23 11 0 5 5 7 10 4 6 -4 8 -11 5 -16z m1050 1 c3
-5 -1 -10 -9 -10 -9 0 -16 5 -16 10 0 6 4 10 9 10 6 0 13 -4 16 -10z m-1059
-57 c-10 -10 -19 5 -10 18 6 11 8 11 12 0 2 -7 1 -15 -2 -18z"/>
<path d="M2712 1288 c5 -14 91 -22 118 -11 24 9 -17 21 -73 22 -35 1 -47 -3
-45 -11z"/>
<path d="M12125 1291 c-3 -5 -1 -12 5 -16 5 -3 10 1 10 9 0 18 -6 21 -15 7z"/>
<path d="M12158 1288 c9 -9 15 -9 24 0 9 9 7 12 -12 12 -19 0 -21 -3 -12 -12z"/>
<path d="M2854 1279 c-6 -11 7 -17 39 -17 41 1 42 15 1 20 -19 2 -37 1 -40 -3z"/>
<path d="M12070 1280 c0 -13 11 -13 30 0 12 8 11 10 -7 10 -13 0 -23 -4 -23
-10z"/>
<path d="M3010 1260 c20 -13 33 -13 25 0 -3 6 -14 10 -23 10 -15 0 -15 -2 -2
-10z"/>
<path d="M2490 1243 c0 -9 10 -13 33 -12 73 5 117 -1 117 -16 0 -12 -19 -15
-111 -15 -84 0 -110 -3 -106 -12 2 -7 19 -13 38 -14 143 -4 249 -13 249 -23 0
-3 -46 -7 -101 -8 -56 -1 -109 -5 -117 -8 -34 -13 12 -24 78 -19 50 4 70 2 78
-9 10 -12 1 -15 -55 -20 -38 -4 -92 -7 -120 -7 -36 0 -53 -4 -53 -12 0 -10 35
-13 146 -11 181 2 180 -14 -2 -28 -156 -12 -190 -29 -53 -28 127 1 139 0 139
-10 0 -14 -90 -28 -195 -30 -43 -1 -47 -3 -35 -15 12 -11 30 -13 83 -7 37 4
70 5 73 2 3 -3 22 -4 42 -2 23 2 33 -1 27 -7 -11 -10 -151 -32 -202 -32 -18 0
-33 -5 -33 -10 0 -6 46 -9 125 -7 69 2 128 0 130 -4 5 -8 -22 -13 -157 -30
-54 -7 -95 -16 -91 -22 3 -5 63 -7 139 -5 74 3 134 2 134 -2 0 -7 -208 -40
-253 -40 -16 0 -26 -4 -22 -10 5 -8 237 -6 263 3 4 1 9 -2 12 -8 6 -13 -105
-32 -242 -41 -59 -4 -105 -10 -103 -15 4 -6 287 -5 320 1 27 6 26 -2 -2 -15
-17 -7 -69 -16 -115 -20 -100 -8 -198 -22 -207 -30 -8 -8 277 2 313 11 22 5
28 4 24 -7 -3 -8 -22 -17 -44 -21 -107 -20 -235 -36 -252 -31 -11 2 -23 0 -27
-7 -5 -8 28 -10 124 -7 72 1 133 6 137 10 14 13 54 7 54 -8 0 -10 -10 -15 -34
-15 -19 0 -37 -4 -40 -9 -3 -5 -45 -12 -93 -17 -49 -4 -92 -9 -98 -10 -5 -1
-41 -2 -78 -3 -38 0 -66 -4 -64 -8 8 -12 276 -7 339 6 39 8 63 9 75 2 15 -8
16 -10 3 -15 -19 -6 -88 -19 -120 -22 -14 -2 -63 -7 -110 -13 -47 -5 -91 -10
-98 -10 -7 -1 -11 -5 -7 -10 5 -9 55 -8 175 4 116 12 150 13 155 4 11 -16 -34
-28 -178 -45 -80 -10 -144 -20 -142 -23 9 -8 222 0 302 13 44 6 51 -10 11 -23
-30 -9 -159 -31 -215 -36 -30 -2 -40 -13 -20 -21 9 -3 43 -1 74 5 32 7 64 11
71 11 57 -2 146 5 159 13 6 4 14 3 17 -2 8 -13 1 -16 -69 -29 -33 -7 -95 -19
-137 -27 -42 -8 -86 -15 -98 -15 -20 0 -26 -11 -14 -23 4 -4 11 -4 17 0 6 4
31 8 56 10 69 4 114 10 137 18 23 7 43 -11 28 -25 -5 -5 -49 -14 -99 -20 -117
-14 -145 -20 -145 -31 0 -11 33 -12 44 -2 4 4 23 6 42 4 19 -1 41 2 49 9 7 6
16 7 18 3 7 -11 102 -7 145 6 24 7 32 7 32 -3 0 -17 -89 -36 -287 -63 -24 -3
-43 -10 -43 -15 0 -6 19 -7 48 -4 26 4 84 9 129 11 46 3 95 10 109 16 19 6 31
6 37 0 6 -6 8 -13 6 -16 -11 -11 -242 -55 -289 -55 -27 0 -50 -4 -50 -10 0
-15 50 -24 62 -12 8 8 17 8 30 1 12 -6 24 -6 37 1 11 5 30 10 43 10 40 0 112
7 141 15 21 5 27 4 27 -8 0 -10 -14 -17 -42 -20 -63 -8 -200 -36 -206 -42 -3
-3 0 -11 6 -17 9 -9 17 -9 34 0 13 6 48 12 78 14 47 3 55 1 54 -14 -2 -17 29
-18 489 -18 429 1 488 2 471 15 -24 18 -19 18 31 0 22 -8 63 -14 90 -14 l50 0
-69 24 c-82 28 -103 44 -57 43 17 -1 31 -5 31 -10 0 -4 13 -8 29 -8 17 0 33
-4 36 -10 8 -13 55 -13 55 0 0 6 -6 12 -12 14 -56 15 -185 60 -193 66 -5 4
-29 13 -52 19 -24 7 -43 15 -43 20 0 5 25 0 56 -10 31 -10 65 -20 77 -22 12
-2 35 -9 50 -15 44 -19 104 -26 111 -13 4 6 -5 13 -21 16 -76 16 -253 79 -253
90 0 10 7 10 35 1 19 -7 38 -15 41 -19 4 -4 17 -4 29 -1 13 3 28 -1 37 -9 8
-9 41 -17 77 -20 34 -3 67 -10 74 -15 7 -5 25 -10 41 -10 28 0 29 1 11 14 -10
8 -30 14 -43 14 -13 0 -31 4 -40 9 -9 5 -33 12 -52 15 -39 6 -154 41 -185 56
-11 5 -35 13 -54 18 -44 10 -53 30 -11 24 17 -2 33 -8 36 -13 3 -5 16 -9 30
-9 14 0 34 -4 44 -10 10 -5 32 -11 49 -12 17 -1 31 -6 31 -10 0 -4 10 -7 23
-6 12 0 41 -4 65 -11 24 -7 57 -14 73 -16 17 -2 45 -6 62 -10 70 -13 -2 13
-93 34 -99 23 -281 75 -315 91 -11 5 -30 12 -42 15 -13 4 -23 11 -23 17 0 6 7
7 18 3 9 -4 44 -14 77 -22 33 -9 67 -19 75 -22 8 -4 26 -5 40 -1 25 6 25 7 3
14 -12 4 -31 9 -43 11 -12 2 -27 8 -34 13 -6 6 -30 13 -53 17 -23 3 -48 14
-55 22 -12 15 -9 16 27 9 22 -4 56 -10 75 -13 19 -3 37 -9 38 -14 5 -12 62
-12 62 0 0 5 -25 15 -55 22 -31 7 -58 16 -61 21 -3 4 -15 8 -27 8 -28 0 -127
36 -141 51 -8 9 -1 10 29 4 22 -3 42 -11 43 -16 2 -5 19 -7 38 -3 22 4 34 2
34 -5 0 -6 14 -11 30 -11 17 0 30 5 30 10 0 6 -6 10 -14 10 -13 0 -60 13 -183
52 -65 20 -82 38 -38 38 14 0 25 -4 25 -10 0 -5 15 -10 34 -10 19 0 38 -5 41
-10 4 -6 18 -9 33 -8 15 1 37 -2 49 -6 12 -4 24 -2 28 4 3 5 3 11 -2 11 -4 1
-19 3 -33 4 -42 5 -113 25 -126 36 -7 5 -16 9 -20 7 -16 -4 -104 35 -98 44 3
5 11 5 17 0 7 -4 28 -9 47 -11 19 -2 38 -8 42 -14 5 -9 11 -8 20 1 10 10 10
15 -2 22 -8 5 -24 10 -35 10 -11 0 -31 6 -45 13 -14 7 -46 19 -72 26 -27 8
-48 18 -48 23 0 5 8 7 18 4 19 -6 168 -36 177 -36 3 0 5 5 5 10 0 6 -6 10 -14
10 -34 0 -206 59 -206 71 0 5 12 4 26 -1 14 -6 38 -10 53 -10 15 0 31 -3 35
-7 4 -4 19 -8 34 -8 15 0 32 -3 37 -6 6 -3 23 -6 40 -7 43 -3 19 16 -35 27
-124 26 -240 65 -240 81 0 13 17 13 26 -1 3 -6 17 -9 30 -6 14 2 26 1 29 -3 6
-11 65 -10 65 1 0 5 -7 9 -14 9 -8 0 -52 12 -97 26 -68 21 -80 28 -65 36 12 7
25 7 40 0 31 -16 130 -27 122 -14 -3 6 -21 13 -39 17 -57 11 -141 36 -187 56
l-45 20 40 -6 c22 -3 54 -7 70 -9 17 -2 40 -7 51 -11 12 -4 25 -2 28 4 4 6
-11 15 -36 22 -157 42 -180 51 -169 62 8 8 14 9 19 1 4 -5 16 -11 27 -11 11
-1 37 -4 57 -7 67 -8 50 11 -25 29 -89 21 -115 34 -96 46 7 4 18 4 24 -1 6 -5
24 -6 41 -1 l29 8 -30 9 c-16 4 -37 8 -45 9 -37 2 -132 38 -120 45 7 4 26 3
42 -2 15 -6 39 -7 53 -4 13 3 26 2 29 -3 3 -5 15 -7 26 -4 31 8 15 17 -58 30
-37 7 -105 20 -152 29 -47 9 -107 16 -134 15 -36 -2 -47 1 -43 11 3 9 22 12
68 10 35 -2 66 -6 69 -10 3 -4 47 -7 98 -8 109 -1 110 12 2 22 -41 4 -84 12
-95 17 -11 6 -84 12 -162 13 -117 1 -143 -1 -143 -13z m290 -83 c8 -5 12 -12
9 -15 -8 -8 -39 5 -39 16 0 11 11 11 30 -1z m67 -16 c-3 -3 -12 -4 -19 -1 -8
3 -5 6 6 6 11 1 17 -2 13 -5z m-137 -38 c0 -2 -7 -6 -15 -10 -8 -3 -15 -1 -15
4 0 6 7 10 15 10 8 0 15 -2 15 -4z m235 -26 c3 -5 -1 -10 -9 -10 -8 0 -18 5
-21 10 -3 6 1 10 9 10 8 0 18 -4 21 -10z m-230 -140 c3 -5 -1 -10 -10 -10 -9
0 -13 5 -10 10 3 6 8 10 10 10 2 0 7 -4 10 -10z m-10 -60 c3 -5 -1 -10 -10
-10 -9 0 -13 5 -10 10 3 6 8 10 10 10 2 0 7 -4 10 -10z m400 0 c3 -5 1 -10 -4
-10 -6 0 -11 5 -11 10 0 6 2 10 4 10 3 0 8 -4 11 -10z m-375 -110 c0 -5 -5
-10 -11 -10 -5 0 -7 5 -4 10 3 6 8 10 11 10 2 0 4 -4 4 -10z m10 -54 c0 -3 -4
-8 -10 -11 -5 -3 -10 -1 -10 4 0 6 5 11 10 11 6 0 10 -2 10 -4z m-5 -66 c3 -5
-1 -10 -10 -10 -9 0 -13 5 -10 10 3 6 8 10 10 10 2 0 7 -4 10 -10z m0 -60 c-3
-5 -13 -10 -21 -10 -8 0 -12 5 -9 10 3 6 13 10 21 10 8 0 12 -4 9 -10z m18
-57 c-7 -2 -19 -2 -25 0 -7 3 -2 5 12 5 14 0 19 -2 13 -5z m2 -64 c-11 -4 -31
-8 -44 -8 -23 -1 -24 0 -7 12 10 8 30 11 45 9 23 -5 24 -6 6 -13z m635 11 c0
-5 -4 -10 -9 -10 -6 0 -13 5 -16 10 -3 6 1 10 9 10 9 0 16 -4 16 -10z m-640
-70 c0 -5 -7 -10 -15 -10 -8 0 -15 5 -15 10 0 6 7 10 15 10 8 0 15 -4 15 -10z
m718 -9 c3 -8 -1 -12 -9 -9 -7 2 -15 10 -17 17 -3 8 1 12 9 9 7 -2 15 -10 17
-17z m-668 -101 c0 -6 -80 -30 -100 -30 -6 0 -10 5 -10 10 0 6 9 10 19 10 11
0 22 4 25 8 6 10 66 12 66 2z m20 -110 c0 -5 -8 -10 -17 -10 -15 0 -16 2 -3
10 19 12 20 12 20 0z m10 -65 c0 -8 -7 -15 -15 -15 -16 0 -20 12 -8 23 11 12
23 8 23 -8z m810 -35 c13 -8 13 -10 -2 -10 -9 0 -20 5 -23 10 -8 13 5 13 25 0z
m-875 -41 c0 -9 -13 -15 -32 -17 -38 -4 -43 10 -10 26 27 13 42 10 42 -9z m62
5 c-3 -3 -12 -4 -19 -1 -8 3 -5 6 6 6 11 1 17 -2 13 -5z"/>
<path d="M12160 1240 c-22 -6 -23 -8 -7 -15 11 -4 23 -3 30 4 15 15 7 19 -23
11z"/>
<path d="M12070 1231 c-36 -10 -8 -24 32 -16 22 5 27 9 17 16 -16 10 -14 10
-49 0z"/>
<path d="M11995 1210 c-8 -13 15 -13 35 0 12 8 11 10 -7 10 -12 0 -25 -4 -28
-10z"/>
<path d="M11948 1203 c7 -3 16 -2 19 1 4 3 -2 6 -13 5 -11 0 -14 -3 -6 -6z"/>
<path d="M12958 1183 c7 -3 16 -2 19 1 4 3 -2 6 -13 5 -11 0 -14 -3 -6 -6z"/>
<path d="M12000 1150 c-23 -8 -22 -8 8 -7 19 1 36 5 38 9 6 10 -13 9 -46 -2z"/>
<path d="M2360 1130 c0 -5 5 -10 10 -10 6 0 10 5 10 10 0 6 -4 10 -10 10 -5 0
-10 -4 -10 -10z"/>
<path d="M2415 1130 c-4 -6 7 -10 27 -10 25 0 29 3 18 10 -19 13 -37 13 -45 0z"/>
<path d="M11870 1130 c-13 -8 -12 -10 3 -10 9 0 17 5 17 10 0 12 -1 12 -20 0z"/>
<path d="M11910 1130 c0 -12 8 -12 35 0 18 8 17 9 -7 9 -16 1 -28 -3 -28 -9z"/>
<path d="M3100 1121 c0 -5 9 -7 20 -4 11 3 20 7 20 9 0 2 -9 4 -20 4 -11 0
-20 -4 -20 -9z"/>
<path d="M12970 1120 c0 -5 7 -10 15 -10 8 0 15 5 15 10 0 6 -7 10 -15 10 -8
0 -15 -4 -15 -10z"/>
<path d="M3170 1110 c0 -5 5 -10 11 -10 5 0 7 5 4 10 -3 6 -8 10 -11 10 -2 0
-4 -4 -4 -10z"/>
<path d="M11940 1083 c-8 -2 -21 -6 -28 -9 -7 -2 -10 -9 -7 -15 5 -8 10 -8 18
0 6 6 19 11 29 11 10 0 18 5 18 10 0 11 -6 11 -30 3z"/>
<path d="M2340 1070 c0 -5 6 -10 14 -10 8 0 18 5 21 10 3 6 -3 10 -14 10 -12
0 -21 -4 -21 -10z"/>
<path d="M3094 1061 c5 -8 56 -3 56 5 0 2 -14 4 -31 4 -16 0 -28 -4 -25 -9z"/>
<path d="M11855 1060 c3 -5 10 -10 16 -10 5 0 9 5 9 10 0 6 -7 10 -16 10 -8 0
-12 -4 -9 -10z"/>
<path d="M3170 1050 c0 -5 5 -10 10 -10 6 0 10 5 10 10 0 6 -4 10 -10 10 -5 0
-10 -4 -10 -10z"/>
<path d="M11780 1050 c0 -6 11 -8 28 -4 39 10 40 14 4 14 -18 0 -32 -5 -32
-10z"/>
<path d="M2288 1013 c7 -3 16 -2 19 1 4 3 -2 6 -13 5 -11 0 -14 -3 -6 -6z"/>
<path d="M2345 1010 c3 -5 12 -10 20 -10 8 0 17 5 20 10 4 6 -5 10 -20 10 -15
0 -24 -4 -20 -10z"/>
<path d="M13035 1010 c3 -5 11 -10 16 -10 6 0 7 5 4 10 -3 6 -11 10 -16 10 -6
0 -7 -4 -4 -10z"/>
<path d="M3170 1000 c0 -13 18 -22 24 -11 3 5 -1 11 -9 15 -8 3 -15 1 -15 -4z"/>
<path d="M11805 1001 c-16 -3 -25 -9 -20 -12 12 -8 52 -5 61 3 3 4 12 4 19 2
7 -3 16 -1 20 5 7 12 -30 13 -80 2z"/>
<path d="M12968 999 c15 -6 30 -5 40 1 13 7 8 9 -23 9 -35 0 -37 -1 -17 -10z"/>
<path d="M3235 980 c3 -5 15 -10 26 -10 11 0 17 5 14 10 -3 6 -15 10 -26 10
-11 0 -17 -4 -14 -10z"/>
<path d="M3328 963 c7 -3 16 -2 19 1 4 3 -2 6 -13 5 -11 0 -14 -3 -6 -6z"/>
<path d="M2340 950 c0 -5 9 -10 19 -10 11 0 23 5 26 10 4 6 -5 10 -19 10 -14
0 -26 -4 -26 -10z"/>
<path d="M13045 950 c-19 -8 -19 -9 3 -9 12 -1 22 4 22 9 0 6 -1 10 -2 9 -2 0
-12 -4 -23 -9z"/>
<path d="M12960 940 c0 -5 11 -10 24 -10 14 0 28 5 31 10 4 6 -7 10 -24 10
-17 0 -31 -4 -31 -10z"/>
<path d="M11775 930 c3 -5 12 -10 20 -10 8 0 17 5 20 10 4 6 -5 10 -20 10 -15
0 -24 -4 -20 -10z"/>
<path d="M3244 923 c10 -11 37 -12 30 -2 -3 5 -12 9 -21 9 -9 0 -13 -3 -9 -7z"/>
<path d="M11706 921 c-13 -5 -16 -10 -8 -15 6 -4 24 0 39 8 23 13 24 15 8 15
-11 0 -29 -4 -39 -8z"/>
<path d="M3315 910 c3 -5 16 -10 28 -9 21 0 21 1 2 9 -28 12 -37 12 -30 0z"/>
<path d="M11625 900 c-4 -6 2 -9 14 -7 29 4 39 17 13 17 -11 0 -24 -5 -27 -10z"/>
<path d="M2275 890 c3 -5 10 -10 16 -10 5 0 9 5 9 10 0 6 -7 10 -16 10 -8 0
-12 -4 -9 -10z"/>
<path d="M2340 890 c0 -5 11 -10 25 -10 14 0 25 5 25 10 0 6 -11 10 -25 10
-14 0 -25 -4 -25 -10z"/>
<path d="M11570 889 c0 -5 5 -7 10 -4 6 3 10 8 10 11 0 2 -4 4 -10 4 -5 0 -10
-5 -10 -11z"/>
<path d="M12950 880 c0 -5 16 -10 35 -10 19 0 35 5 35 10 0 6 -16 10 -35 10
-19 0 -35 -4 -35 -10z"/>
<path d="M13050 879 c0 -5 5 -7 10 -4 6 3 10 8 10 11 0 2 -4 4 -10 4 -5 0 -10
-5 -10 -11z"/>
<path d="M11711 865 c-15 -8 -20 -15 -13 -19 7 -4 23 -1 38 7 19 10 23 15 12
19 -8 3 -25 0 -37 -7z"/>
<path d="M3315 850 c3 -5 18 -10 32 -10 32 0 28 5 -10 14 -19 4 -26 3 -22 -4z"/>
<path d="M11610 840 c0 -13 20 -13 40 0 12 8 9 10 -12 10 -16 0 -28 -4 -28
-10z"/>
<path d="M2275 830 c-3 -5 1 -10 9 -10 9 0 16 5 16 10 0 6 -4 10 -9 10 -6 0
-13 -4 -16 -10z"/>
<path d="M2350 830 c0 -5 9 -10 19 -10 11 0 23 5 26 10 4 6 -5 10 -19 10 -14
0 -26 -4 -26 -10z"/>
<path d="M3408 833 c7 -3 16 -2 19 1 4 3 -2 6 -13 5 -11 0 -14 -3 -6 -6z"/>
<path d="M11547 826 c-4 -10 -1 -13 9 -9 7 3 14 9 14 14 0 14 -17 10 -23 -5z"/>
<path d="M11460 820 c-44 -7 -49 -12 -10 -12 53 0 70 3 70 12 0 6 -3 9 -7 8
-5 0 -28 -4 -53 -8z"/>
<path d="M12960 821 c0 -16 28 -20 47 -6 17 13 16 14 -14 15 -18 0 -33 -4 -33
-9z"/>
<path d="M13040 826 c0 -9 30 -14 35 -6 4 6 -3 10 -14 10 -12 0 -21 -2 -21 -4z"/>
<path d="M3320 791 c0 -11 40 -22 54 -14 5 4 1 10 -10 14 -27 11 -44 11 -44 0z"/>
<path d="M11593 781 c-35 -8 -63 -18 -63 -23 0 -10 24 -11 34 -1 7 8 25 11 74
15 30 2 42 12 25 20 -5 2 -36 -3 -70 -11z"/>
<path d="M3390 780 c0 -5 5 -10 10 -10 6 0 10 5 10 10 0 6 -4 10 -10 10 -5 0
-10 -4 -10 -10z"/>
<path d="M2345 770 c3 -5 15 -10 26 -10 10 0 19 5 19 10 0 6 -12 10 -26 10
-14 0 -23 -4 -19 -10z"/>
<path d="M3425 770 c3 -5 8 -10 11 -10 2 0 4 5 4 10 0 6 -5 10 -11 10 -5 0 -7
-4 -4 -10z"/>
<path d="M3470 761 c0 -5 11 -8 25 -8 14 0 25 3 25 8 0 5 -11 9 -25 9 -14 0
-25 -4 -25 -9z"/>
<path d="M11467 763 c-9 -2 -15 -8 -13 -12 7 -10 66 -1 66 10 0 9 -22 10 -53
2z"/>
<path d="M13042 760 c10 -6 25 -7 40 -1 20 9 18 10 -17 10 -31 0 -36 -2 -23
-9z"/>
<path d="M11400 741 c0 -6 9 -9 20 -8 11 1 20 5 20 9 0 4 -9 8 -20 8 -11 0
-20 -4 -20 -9z"/>
<path d="M11365 730 c3 -5 8 -10 11 -10 2 0 4 5 4 10 0 6 -5 10 -11 10 -5 0
-7 -4 -4 -10z"/>
<path d="M11513 707 c-57 -11 -103 -23 -103 -27 0 -8 72 -3 100 7 8 3 26 7 40
9 88 12 111 17 116 25 8 13 -38 9 -153 -14z"/>
<path d="M2283 703 c9 -2 23 -2 30 0 6 3 -1 5 -18 5 -16 0 -22 -2 -12 -5z"/>
<path d="M3470 700 c0 -5 4 -10 9 -10 6 0 13 5 16 10 3 6 -1 10 -9 10 -9 0
-16 -4 -16 -10z"/>
<path d="M3515 700 c3 -5 8 -10 11 -10 2 0 4 5 4 10 0 6 -5 10 -11 10 -5 0 -7
-4 -4 -10z"/>
<path d="M11170 705 c0 -7 30 -13 34 -7 3 4 -4 9 -15 9 -10 1 -19 0 -19 -2z"/>
<path d="M13050 700 c0 -13 20 -13 40 0 12 8 9 10 -12 10 -16 0 -28 -4 -28
-10z"/>
<path d="M3625 670 c4 -6 11 -8 16 -5 14 9 11 15 -7 15 -8 0 -12 -5 -9 -10z"/>
<path d="M11335 671 c-16 -4 -25 -10 -19 -13 6 -4 24 -4 39 1 37 9 20 19 -20
12z"/>
<path d="M3460 646 c26 -13 44 -11 35 5 -4 5 -18 9 -33 9 l-27 0 25 -14z"/>
<path d="M11238 648 c9 -9 15 -9 24 0 9 9 7 12 -12 12 -19 0 -21 -3 -12 -12z"/>
<path d="M2278 643 c7 -3 16 -2 19 1 4 3 -2 6 -13 5 -11 0 -14 -3 -6 -6z"/>
<path d="M11195 640 c3 -5 8 -10 11 -10 2 0 4 5 4 10 0 6 -5 10 -11 10 -5 0
-7 -4 -4 -10z"/>
<path d="M13048 639 c15 -6 30 -5 40 1 13 7 8 9 -23 9 -35 0 -37 -1 -17 -10z"/>
<path d="M3520 633 c0 -5 11 -9 25 -9 14 -1 25 2 25 7 0 5 -11 9 -25 9 -14 0
-25 -3 -25 -7z"/>
<path d="M11030 630 c-20 -12 -10 -19 14 -10 11 3 15 9 10 13 -6 3 -16 2 -24
-3z"/>
<path d="M11105 630 c4 -6 11 -8 16 -5 14 9 11 15 -7 15 -8 0 -12 -5 -9 -10z"/>
<path d="M3610 620 c0 -5 10 -10 23 -10 18 0 19 2 7 10 -19 13 -30 13 -30 0z"/>
<path d="M10960 610 c-9 -6 -10 -10 -3 -10 6 0 15 5 18 10 8 12 4 12 -15 0z"/>
<path d="M11335 610 c-18 -7 -19 -8 -2 -15 9 -4 23 -2 31 4 7 6 16 8 19 4 4
-3 7 -1 7 5 0 14 -25 15 -55 2z"/>
<path d="M3460 600 c0 -9 41 -28 60 -28 8 -1 25 -4 38 -7 12 -4 22 -3 22 2 0
6 -27 17 -60 25 -33 8 -60 12 -60 8z"/>
<path d="M11242 591 c-11 -7 -11 -9 0 -13 8 -3 22 0 33 8 18 14 18 14 -1 14
-10 0 -25 -4 -32 -9z"/>
<path d="M2285 580 c3 -5 10 -10 16 -10 5 0 9 5 9 10 0 6 -7 10 -16 10 -8 0
-12 -4 -9 -10z"/>
<path d="M11190 580 c0 -5 7 -7 15 -4 8 4 15 8 15 10 0 2 -7 4 -15 4 -8 0 -15
-4 -15 -10z"/>
<path d="M11100 570 c-18 -12 -2 -12 25 0 13 6 15 9 5 9 -8 0 -22 -4 -30 -9z"/>
<path d="M11155 570 c4 -6 11 -8 16 -5 14 9 11 15 -7 15 -8 0 -12 -5 -9 -10z"/>
<path d="M3615 557 c23 -19 45 -22 45 -7 0 6 -6 10 -14 10 -8 0 -23 3 -33 6
-16 6 -16 5 2 -9z"/>
<path d="M11025 560 c-8 -13 5 -13 25 0 13 8 13 10 -2 10 -9 0 -20 -4 -23 -10z"/>
<path d="M11325 550 c-15 -6 -16 -9 -5 -11 44 -7 70 -4 70 8 0 15 -35 16 -65
3z"/>
<path d="M3680 546 c0 -2 9 -6 20 -9 11 -3 20 -1 20 4 0 5 -9 9 -20 9 -11 0
-20 -2 -20 -4z"/>
<path d="M10920 540 c0 -5 5 -10 10 -10 6 0 10 5 10 10 0 6 -4 10 -10 10 -5 0
-10 -4 -10 -10z"/>
<path d="M10868 533 c7 -3 16 -2 19 1 4 3 -2 6 -13 5 -11 0 -14 -3 -6 -6z"/>
<path d="M11240 534 c-8 -1 -32 -5 -53 -9 -43 -7 -43 -22 0 -19 15 1 30 3 33
4 3 1 14 3 25 3 11 1 21 6 23 12 4 11 -6 14 -28 9z"/>
<path d="M2195 520 c3 -5 13 -10 21 -10 8 0 14 5 14 10 0 6 -9 10 -21 10 -11
0 -17 -4 -14 -10z"/>
<path d="M3788 523 c7 -3 16 -2 19 1 4 3 -2 6 -13 5 -11 0 -14 -3 -6 -6z"/>
<path d="M10770 519 c0 -5 5 -7 10 -4 6 3 10 8 10 11 0 2 -4 4 -10 4 -5 0 -10
-5 -10 -11z"/>
<path d="M13148 523 c7 -3 16 -2 19 1 4 3 -2 6 -13 5 -11 0 -14 -3 -6 -6z"/>
<path d="M11100 510 c-12 -8 -9 -10 13 -10 15 0 27 5 27 10 0 13 -20 13 -40 0z"/>
<path d="M3619 496 c7 -9 23 -16 34 -16 26 0 12 15 -23 25 -22 7 -23 6 -11 -9z"/>
<path d="M11010 490 c19 -13 30 -13 30 0 0 6 -10 10 -22 10 -19 0 -20 -2 -8
-10z"/>
<path d="M3702 481 c4 -13 18 -16 19 -4 0 4 -5 9 -11 12 -7 2 -11 -2 -8 -8z"/>
<path d="M11255 476 c-24 -10 -26 -13 -12 -19 22 -8 47 1 47 19 0 8 -1 14 -2
14 -2 -1 -16 -7 -33 -14z"/>
<path d="M11313 478 c2 -7 9 -13 15 -12 7 1 21 2 32 3 35 2 21 21 -16 21 -24
0 -34 -4 -31 -12z"/>
<path d="M10860 468 c0 -12 38 -10 45 2 4 6 -5 9 -19 8 -15 -1 -26 -6 -26 -10z"/>
<path d="M10920 470 c0 -5 4 -10 9 -10 6 0 13 5 16 10 3 6 -1 10 -9 10 -9 0
-16 -4 -16 -10z"/>
<path d="M2205 460 c-3 -5 -2 -10 4 -10 5 0 13 5 16 10 3 6 2 10 -4 10 -5 0
-13 -4 -16 -10z"/>
<path d="M2265 460 c8 -13 35 -13 55 0 11 7 5 10 -23 10 -23 0 -36 -4 -32 -10z"/>
<path d="M3785 460 c3 -5 10 -10 16 -10 5 0 9 5 9 10 0 6 -7 10 -16 10 -8 0
-12 -4 -9 -10z"/>
<path d="M3855 460 c-3 -5 1 -10 10 -10 9 0 13 5 10 10 -3 6 -8 10 -10 10 -2
0 -7 -4 -10 -10z"/>
<path d="M10775 460 c3 -5 12 -7 20 -3 21 7 19 13 -6 13 -11 0 -18 -4 -14 -10z"/>
<path d="M11155 459 c-4 -6 -5 -13 -1 -16 8 -8 56 6 56 17 0 13 -47 13 -55 -1z"/>
<path d="M13050 461 c-22 -6 -23 -8 -7 -14 10 -4 27 -2 38 3 35 19 19 25 -31
11z"/>
<path d="M11115 455 c-5 -2 -31 -6 -57 -10 -27 -3 -48 -11 -48 -17 0 -7 12 -8
33 -3 17 4 45 8 61 9 16 0 31 7 33 14 5 12 -2 14 -22 7z"/>
<path d="M3634 435 c22 -17 36 -19 36 -6 0 10 -24 21 -43 21 -7 0 -3 -7 7 -15z"/>
<path d="M10558 433 c6 -2 18 -2 25 0 6 3 1 5 -13 5 -14 0 -19 -2 -12 -5z"/>
<path d="M3700 420 c0 -12 26 -19 39 -10 9 5 4 9 -13 12 -14 3 -26 2 -26 -2z"/>
<path d="M10900 423 c-14 -3 -29 -9 -35 -15 -7 -7 4 -8 35 -2 25 4 53 8 62 9
10 1 21 4 24 8 8 7 -44 7 -86 0z"/>
<path d="M2280 400 c0 -12 17 -12 45 0 17 7 15 9 -12 9 -18 1 -33 -3 -33 -9z"/>
<path d="M3780 406 c0 -9 30 -14 35 -6 4 6 -3 10 -14 10 -12 0 -21 -2 -21 -4z"/>
<path d="M3855 390 c3 -5 13 -10 21 -10 8 0 12 5 9 10 -3 6 -13 10 -21 10 -8
0 -12 -4 -9 -10z"/>
<path d="M10178 393 c7 -3 16 -2 19 1 4 3 -2 6 -13 5 -11 0 -14 -3 -6 -6z"/>
<path d="M10730 390 c0 -5 5 -10 10 -10 6 0 10 5 10 10 0 6 -4 10 -10 10 -5 0
-10 -4 -10 -10z"/>
<path d="M10768 393 c6 -2 18 -2 25 0 6 3 1 5 -13 5 -14 0 -19 -2 -12 -5z"/>
<path d="M3930 379 c0 -5 11 -9 25 -9 14 0 25 2 25 4 0 2 -11 6 -25 8 -14 3
-25 1 -25 -3z"/>
<path d="M10679 379 c16 -6 28 -6 35 1 7 7 -1 10 -24 9 -33 0 -34 -1 -11 -10z"/>
<path d="M9990 370 c0 -5 5 -10 10 -10 6 0 10 5 10 10 0 6 -4 10 -10 10 -5 0
-10 -4 -10 -10z"/>
<path d="M10550 370 c-21 -7 -21 -8 -5 -9 11 0 27 4 35 9 18 11 5 11 -30 0z"/>
<path d="M10628 373 c7 -3 16 -2 19 1 4 3 -2 6 -13 5 -11 0 -14 -3 -6 -6z"/>
<path d="M3704 361 c8 -12 46 -21 46 -11 0 8 -24 20 -41 20 -6 0 -8 -4 -5 -9z"/>
<path d="M10475 360 c3 -5 8 -10 11 -10 2 0 4 5 4 10 0 6 -5 10 -11 10 -5 0
-7 -4 -4 -10z"/>
<path d="M10931 361 c-9 -6 -10 -11 -2 -15 14 -9 51 2 51 15 0 11 -30 12 -49
0z"/>
<path d="M10410 350 c0 -5 5 -10 10 -10 6 0 10 5 10 10 0 6 -4 10 -10 10 -5 0
-10 -4 -10 -10z"/>
<path d="M10866 351 c-18 -7 -18 -8 -2 -14 27 -11 36 -8 36 8 0 16 -5 17 -34
6z"/>
<path d="M2287 339 c8 -8 16 -8 30 0 16 9 14 10 -11 11 -22 0 -27 -3 -19 -11z"/>
<path d="M2345 340 c3 -5 15 -10 25 -10 10 0 22 5 25 10 4 6 -7 10 -25 10 -18
0 -29 -4 -25 -10z"/>
<path d="M3788 343 c12 -2 30 -2 40 0 9 3 -1 5 -23 4 -22 0 -30 -2 -17 -4z"/>
<path d="M10375 340 c3 -5 8 -10 11 -10 2 0 4 5 4 10 0 6 -5 10 -11 10 -5 0
-7 -4 -4 -10z"/>
<path d="M10781 341 c-11 -7 -11 -9 0 -13 19 -6 59 3 59 13 0 11 -41 11 -59 0z"/>
<path d="M3860 330 c0 -5 9 -10 21 -10 11 0 17 5 14 10 -3 6 -13 10 -21 10 -8
0 -14 -4 -14 -10z"/>
<path d="M10226 331 c-4 -5 -2 -12 3 -15 5 -4 12 -2 15 3 4 5 2 12 -3 15 -5 4
-12 2 -15 -3z"/>
<path d="M13050 330 c-12 -8 -9 -10 13 -10 16 0 26 4 22 10 -8 12 -16 12 -35
0z"/>
<path d="M13120 330 c0 -13 11 -13 30 0 12 8 11 10 -7 10 -13 0 -23 -4 -23
-10z"/>
<path d="M3930 320 c0 -5 5 -10 11 -10 5 0 7 5 4 10 -3 6 -8 10 -11 10 -2 0
-4 -4 -4 -10z"/>
<path d="M10688 321 c12 -7 62 -4 62 5 0 2 -17 4 -37 4 -24 0 -33 -3 -25 -9z"/>
<path d="M3707 314 c-12 -12 4 -24 31 -24 26 1 26 1 8 15 -22 17 -30 18 -39 9z"/>
<path d="M3970 310 c0 -5 5 -10 11 -10 5 0 7 5 4 10 -3 6 -8 10 -11 10 -2 0
-4 -4 -4 -10z"/>
<path d="M10065 310 c-3 -5 -2 -10 4 -10 5 0 13 5 16 10 3 6 2 10 -4 10 -5 0
-13 -4 -16 -10z"/>
<path d="M10547 313 c-15 -2 -25 -9 -22 -14 7 -10 54 -2 70 12 9 9 3 9 -48 2z"/>
<path d="M10616 311 c-4 -5 5 -8 19 -6 35 3 44 15 12 15 -14 0 -28 -4 -31 -9z"/>
<path d="M10910 300 c-19 -4 -62 -11 -95 -15 -43 -5 -54 -10 -40 -15 11 -4 24
-5 30 -2 5 3 25 5 45 5 19 -1 42 1 50 4 14 7 24 8 63 12 9 0 17 6 17 11 0 11
-20 11 -70 0z"/>
<path d="M3772 288 c5 -14 68 -22 68 -9 0 11 -25 21 -52 21 -11 0 -18 -5 -16
-12z"/>
<path d="M9265 290 c-3 -5 -2 -10 4 -10 5 0 13 5 16 10 3 6 2 10 -4 10 -5 0
-13 -4 -16 -10z"/>
<path d="M9820 295 c0 -7 30 -13 34 -7 3 4 -4 9 -15 9 -10 1 -19 0 -19 -2z"/>
<path d="M10390 291 c-23 -4 -31 -9 -22 -14 14 -10 69 0 77 14 7 10 -1 10 -55
0z"/>
<path d="M10470 290 c20 -13 40 -13 40 0 0 6 -12 10 -27 10 -22 0 -25 -2 -13
-10z"/>
<path d="M2371 281 c-9 -6 -10 -11 -2 -15 13 -8 31 1 31 15 0 11 -11 11 -29 0z"/>
<path d="M2288 273 c6 -2 18 -2 25 0 6 3 1 5 -13 5 -14 0 -19 -2 -12 -5z"/>
<path d="M3850 270 c0 -5 14 -10 31 -10 17 0 28 4 24 10 -3 6 -17 10 -31 10
-13 0 -24 -4 -24 -10z"/>
<path d="M10318 273 c7 -3 16 -2 19 1 4 3 -2 6 -13 5 -11 0 -14 -3 -6 -6z"/>
<path d="M13035 270 c3 -5 17 -10 30 -10 13 0 27 5 30 10 4 6 -8 10 -30 10
-22 0 -34 -4 -30 -10z"/>
<path d="M13123 269 c14 -8 22 -8 30 0 8 8 3 11 -18 11 -26 -1 -28 -2 -12 -11z"/>
<path d="M3932 258 c2 -6 14 -13 27 -15 27 -4 20 12 -9 20 -13 3 -20 1 -18 -5z"/>
<path d="M10165 260 c3 -5 8 -10 11 -10 2 0 4 5 4 10 0 6 -5 10 -11 10 -5 0
-7 -4 -4 -10z"/>
<path d="M10228 263 c7 -3 16 -2 19 1 4 3 -2 6 -13 5 -11 0 -14 -3 -6 -6z"/>
<path d="M10653 263 c-13 -2 -23 -9 -23 -15 0 -6 9 -8 23 -4 12 4 34 8 49 10
15 1 31 5 34 9 8 7 -45 7 -83 0z"/>
<path d="M10075 250 c-3 -5 -2 -10 4 -10 5 0 13 5 16 10 3 6 2 10 -4 10 -5 0
-13 -4 -16 -10z"/>
<path d="M11016 251 c-18 -7 -18 -8 -2 -14 10 -4 25 -3 34 2 9 4 23 6 30 4 6
-3 12 0 12 6 0 12 -45 14 -74 2z"/>
<path d="M4005 240 c3 -5 10 -10 16 -10 5 0 9 5 9 10 0 6 -7 10 -16 10 -8 0
-12 -4 -9 -10z"/>
<path d="M10488 243 c-25 -6 -22 -20 4 -19 12 0 23 7 26 14 4 12 0 13 -30 5z"/>
<path d="M10530 240 c0 -5 9 -10 19 -10 11 0 23 5 26 10 4 6 -5 10 -19 10 -14
0 -26 -4 -26 -10z"/>
<path d="M10901 238 c-56 -12 -37 -27 27 -22 49 5 62 10 62 25 0 11 -30 10
-89 -3z"/>
<path d="M9900 232 c0 -4 9 -8 20 -9 11 -1 20 2 20 8 0 5 -9 9 -20 9 -11 0
-20 -4 -20 -8z"/>
<path d="M10400 230 c-14 -4 -41 -9 -60 -9 -19 -1 -42 -6 -50 -12 -11 -8 -8
-9 15 -5 17 3 58 7 93 8 61 3 77 10 46 22 -9 3 -16 6 -17 5 -1 -1 -13 -5 -27
-9z"/>
<path d="M9780 220 c0 -5 7 -7 15 -4 8 4 15 8 15 10 0 2 -7 4 -15 4 -8 0 -15
-4 -15 -10z"/>
<path d="M9828 223 c6 -2 18 -2 25 0 6 3 1 5 -13 5 -14 0 -19 -2 -12 -5z"/>
<path d="M10780 220 c-16 -11 -11 -13 37 -14 18 -1 32 4 30 9 -5 14 -49 17
-67 5z"/>
<path d="M2358 213 c6 -2 18 -2 25 0 6 3 1 5 -13 5 -14 0 -19 -2 -12 -5z"/>
<path d="M4160 216 c0 -2 7 -6 15 -10 8 -3 15 -1 15 4 0 6 -7 10 -15 10 -8 0
-15 -2 -15 -4z"/>
<path d="M13140 210 c0 -5 7 -7 15 -4 8 4 15 8 15 10 0 2 -7 4 -15 4 -8 0 -15
-4 -15 -10z"/>
<path d="M13188 213 c7 -3 16 -2 19 1 4 3 -2 6 -13 5 -11 0 -14 -3 -6 -6z"/>
<path d="M9570 200 c0 -5 7 -10 16 -10 8 0 12 5 9 10 -3 6 -10 10 -16 10 -5 0
-9 -4 -9 -10z"/>
<path d="M9668 203 c7 -3 16 -2 19 1 4 3 -2 6 -13 5 -11 0 -14 -3 -6 -6z"/>
<path d="M10165 200 c-3 -5 1 -10 9 -10 8 0 18 5 21 10 3 6 -1 10 -9 10 -8 0
-18 -4 -21 -10z"/>
<path d="M10225 200 c-3 -5 1 -10 9 -10 9 0 16 5 16 10 0 6 -4 10 -9 10 -6 0
-13 -4 -16 -10z"/>
<path d="M10655 201 c-60 -7 -49 -18 15 -16 72 3 80 4 80 15 0 10 -13 11 -95
1z"/>
<path d="M3970 190 c0 -5 5 -10 10 -10 6 0 10 5 10 10 0 6 -4 10 -10 10 -5 0
-10 -4 -10 -10z"/>
<path d="M9518 193 c7 -3 16 -2 19 1 4 3 -2 6 -13 5 -11 0 -14 -3 -6 -6z"/>
<path d="M10130 190 c0 -5 5 -10 10 -10 6 0 10 5 10 10 0 6 -4 10 -10 10 -5 0
-10 -4 -10 -10z"/>
<path d="M8537 179 c7 -7 15 -10 18 -7 3 3 -2 9 -12 12 -14 6 -15 5 -6 -5z"/>
<path d="M9438 183 c6 -2 18 -2 25 0 6 3 1 5 -13 5 -14 0 -19 -2 -12 -5z"/>
<path d="M10004 181 c3 -5 15 -7 26 -4 28 7 25 13 -6 13 -14 0 -23 -4 -20 -9z"/>
<path d="M10070 180 c0 -13 20 -13 40 0 12 8 9 10 -12 10 -16 0 -28 -4 -28
-10z"/>
<path d="M10536 181 c-11 -17 25 -21 47 -6 21 15 21 15 -10 15 -18 0 -34 -4
-37 -9z"/>
<path d="M4067 165 c12 -8 29 -12 38 -9 22 9 0 24 -35 24 l-24 0 21 -15z"/>
<path d="M9275 170 c3 -5 8 -10 11 -10 2 0 4 5 4 10 0 6 -5 10 -11 10 -5 0 -7
-4 -4 -10z"/>
<path d="M9348 173 c7 -3 16 -2 19 1 4 3 -2 6 -13 5 -11 0 -14 -3 -6 -6z"/>
<path d="M9910 170 c0 -5 5 -10 10 -10 6 0 10 5 10 10 0 6 -4 10 -10 10 -5 0
-10 -4 -10 -10z"/>
<path d="M10435 173 c-59 -6 -69 -24 -12 -22 26 1 47 5 47 9 0 4 11 5 25 2 15
-2 25 0 25 7 0 11 -8 11 -85 4z"/>
<path d="M4148 158 c6 -6 18 -8 28 -6 14 3 12 5 -9 10 -19 3 -25 2 -19 -4z"/>
<path d="M9840 160 c0 -5 4 -10 9 -10 6 0 13 5 16 10 3 6 -1 10 -9 10 -9 0
-16 -4 -16 -10z"/>
<path d="M2285 150 c-4 -7 3 -8 22 -4 38 9 42 14 10 14 -14 0 -29 -5 -32 -10z"/>
<path d="M2363 153 c9 -2 23 -2 30 0 6 3 -1 5 -18 5 -16 0 -22 -2 -12 -5z"/>
<path d="M9098 153 c7 -3 16 -2 19 1 4 3 -2 6 -13 5 -11 0 -14 -3 -6 -6z"/>
<path d="M9750 150 c0 -12 8 -12 35 0 18 8 17 9 -7 9 -16 1 -28 -3 -28 -9z"/>
<path d="M10262 150 c-18 -4 -36 -11 -40 -15 -8 -8 78 4 118 16 22 6 21 7 -10
7 -19 0 -50 -4 -68 -8z"/>
<path d="M13141 153 c-17 -3 -20 -7 -12 -13 16 -9 51 -1 51 11 0 5 -3 8 -7 8
-5 -1 -19 -4 -32 -6z"/>
<path d="M3932 139 c5 -15 58 -21 58 -7 0 4 -6 8 -14 8 -8 0 -22 3 -32 7 -12
4 -15 2 -12 -8z"/>
<path d="M9688 143 c6 -2 18 -2 25 0 6 3 1 5 -13 5 -14 0 -19 -2 -12 -5z"/>
<path d="M13043 143 c9 -2 25 -2 35 0 9 3 1 5 -18 5 -19 0 -27 -2 -17 -5z"/>
<path d="M4010 125 c0 -8 7 -15 15 -15 8 0 15 4 15 9 0 5 -7 11 -15 15 -9 3
-15 0 -15 -9z"/>
<path d="M4248 133 c6 -2 18 -2 25 0 6 3 1 5 -13 5 -14 0 -19 -2 -12 -5z"/>
<path d="M8795 130 c4 -6 11 -8 16 -5 14 9 11 15 -7 15 -8 0 -12 -5 -9 -10z"/>
<path d="M9500 130 c-12 -7 -10 -9 8 -7 12 0 22 5 22 9 0 11 -12 10 -30 -2z"/>
<path d="M9585 130 c3 -5 8 -10 11 -10 2 0 4 5 4 10 0 6 -5 10 -11 10 -5 0 -7
-4 -4 -10z"/>
<path d="M9628 133 c7 -3 16 -2 19 1 4 3 -2 6 -13 5 -11 0 -14 -3 -6 -6z"/>
<path d="M10135 130 c-4 -6 8 -10 29 -10 20 0 36 5 36 10 0 6 -13 10 -29 10
-17 0 -33 -4 -36 -10z"/>
<path d="M8620 119 c0 -5 5 -7 10 -4 6 3 10 8 10 11 0 2 -4 4 -10 4 -5 0 -10
-5 -10 -11z"/>
<path d="M10015 120 c-11 -5 -18 -9 -15 -10 27 -8 40 -6 40 6 0 8 -1 14 -2 13
-2 0 -12 -4 -23 -9z"/>
<path d="M10060 119 c0 -5 14 -8 30 -7 17 1 30 5 30 9 0 3 -13 6 -30 7 -16 0
-30 -4 -30 -9z"/>
<path d="M3854 109 c-10 -16 8 -28 31 -19 19 7 19 7 -2 18 -16 9 -24 9 -29 1z"/>
<path d="M4075 110 c3 -5 13 -10 21 -10 8 0 12 5 9 10 -3 6 -13 10 -21 10 -8
0 -12 -4 -9 -10z"/>
<path d="M9285 110 c-8 -13 5 -13 25 0 13 8 13 10 -2 10 -9 0 -20 -4 -23 -10z"/>
<path d="M9345 110 c3 -5 10 -10 16 -10 5 0 9 5 9 10 0 6 -7 10 -16 10 -8 0
-12 -4 -9 -10z"/>
<path d="M9916 111 c-16 -6 -17 -9 -4 -13 8 -4 21 -2 29 3 8 5 22 6 32 3 9 -3
17 -1 17 5 0 12 -45 13 -74 2z"/>
<path d="M8285 100 c-3 -5 1 -10 9 -10 9 0 16 5 16 10 0 6 -4 10 -9 10 -6 0
-13 -4 -16 -10z"/>
<path d="M9208 103 c6 -2 18 -2 25 0 6 3 1 5 -13 5 -14 0 -19 -2 -12 -5z"/>
<path d="M9858 98 c9 -9 15 -9 24 0 9 9 7 12 -12 12 -19 0 -21 -3 -12 -12z"/>
<path d="M2360 90 c-11 -8 -7 -9 15 -4 37 8 45 14 19 14 -10 0 -26 -5 -34 -10z"/>
<path d="M3926 93 c-3 -3 -3 -10 0 -14 7 -12 34 -11 34 0 0 11 -26 22 -34 14z"/>
<path d="M8148 93 c7 -3 16 -2 19 1 4 3 -2 6 -13 5 -11 0 -14 -3 -6 -6z"/>
<path d="M9108 88 c9 -9 15 -9 24 0 9 9 7 12 -12 12 -19 0 -21 -3 -12 -12z"/>
<path d="M9175 90 c3 -5 8 -10 11 -10 2 0 4 5 4 10 0 6 -5 10 -11 10 -5 0 -7
-4 -4 -10z"/>
<path d="M9720 90 c-50 -8 -48 -11 8 -12 21 -1 47 4 58 10 19 11 19 11 -1 10
-11 0 -40 -4 -65 -8z"/>
<path d="M10305 91 c-18 -4 -25 -9 -19 -14 15 -9 74 2 74 14 0 10 -10 10 -55
0z"/>
<path d="M13200 90 c0 -13 11 -13 30 0 12 8 11 10 -7 10 -13 0 -23 -4 -23 -10z"/>
<path d="M2210 80 c0 -5 5 -10 10 -10 6 0 10 5 10 10 0 6 -4 10 -10 10 -5 0
-10 -4 -10 -10z"/>
<path d="M2280 80 c0 -5 4 -10 9 -10 6 0 13 5 16 10 3 6 -1 10 -9 10 -9 0 -16
-4 -16 -10z"/>
<path d="M8950 80 c-18 -12 -2 -12 25 0 13 6 15 9 5 9 -8 0 -22 -4 -30 -9z"/>
<path d="M9038 83 c7 -3 16 -2 19 1 4 3 -2 6 -13 5 -11 0 -14 -3 -6 -6z"/>
<path d="M10240 80 c-22 -6 -23 -8 -7 -15 11 -4 23 -3 30 4 15 15 7 19 -23 11z"/>
<path d="M12960 80 c20 -13 60 -13 60 0 0 6 -17 10 -37 10 -28 0 -34 -3 -23
-10z"/>
<path d="M13040 80 c0 -5 11 -10 24 -10 14 0 28 5 31 10 4 6 -7 10 -24 10 -17
0 -31 -4 -31 -10z"/>
<path d="M13130 86 c0 -9 30 -14 35 -6 4 6 -3 10 -14 10 -12 0 -21 -2 -21 -4z"/>
<path d="M8878 73 c7 -3 16 -2 19 1 4 3 -2 6 -13 5 -11 0 -14 -3 -6 -6z"/>
<path d="M9530 70 c-21 -7 -21 -8 -5 -9 11 0 27 4 35 9 18 11 5 11 -30 0z"/>
<path d="M9580 71 c0 -18 17 -20 36 -6 18 14 18 14 -8 15 -16 0 -28 -4 -28 -9z"/>
<path d="M10113 73 c-29 -2 -53 -8 -53 -13 0 -13 129 -5 143 9 8 8 5 11 -13 9
-14 -1 -49 -3 -77 -5z"/>
<path d="M4005 60 c27 -12 35 -12 35 0 0 6 -12 10 -27 9 -25 0 -26 -1 -8 -9z"/>
<path d="M8715 60 c-28 -7 -28 -8 -5 -9 14 0 32 4 40 9 17 11 8 11 -35 0z"/>
<path d="M10505 58 c-44 -4 -107 -13 -140 -19 -33 -6 -73 -12 -89 -15 -50 -7
-42 -14 17 -14 31 0 58 4 62 9 3 5 36 9 74 9 38 0 74 3 82 7 7 5 28 9 47 9 20
1 37 7 39 14 3 6 1 11 -4 11 -4 -1 -44 -6 -88 -11z"/>
<path d="M3860 45 c0 -15 27 -28 41 -19 13 8 3 21 -21 27 -12 3 -20 0 -20 -8z"/>
<path d="M4075 49 c26 -17 43 -20 51 -8 3 5 -1 9 -8 9 -7 0 -24 3 -38 6 -24 5
-24 5 -5 -7z"/>
<path d="M8530 56 c0 -9 40 -13 46 -5 3 5 -6 9 -20 9 -14 0 -26 -2 -26 -4z"/>
<path d="M9345 50 c3 -5 12 -7 20 -3 21 7 19 13 -6 13 -11 0 -18 -4 -14 -10z"/>
<path d="M9410 50 c0 -5 9 -10 20 -10 11 0 20 5 20 10 0 6 -9 10 -20 10 -11 0
-20 -4 -20 -10z"/>
<path d="M9880 44 c-52 -7 -116 -13 -142 -13 -27 -1 -48 -5 -48 -10 0 -9 29
-8 140 4 30 4 84 8 120 9 87 4 90 4 90 16 0 12 -37 11 -160 -6z"/>
<path d="M8350 40 c19 -13 30 -13 30 0 0 6 -10 10 -22 10 -19 0 -20 -2 -8 -10z"/>
<path d="M9288 43 c6 -2 18 -2 25 0 6 3 1 5 -13 5 -14 0 -19 -2 -12 -5z"/>
<path d="M2350 25 c0 -19 9 -19 34 0 19 14 19 15 -7 15 -17 0 -27 -5 -27 -15z"/>
<path d="M2430 30 c20 -13 47 -13 55 0 4 6 -9 10 -32 10 -28 0 -34 -3 -23 -10z"/>
<path d="M4170 30 c20 -13 33 -13 25 0 -3 6 -14 10 -23 10 -15 0 -15 -2 -2
-10z"/>
<path d="M6810 36 c0 -2 7 -6 15 -10 8 -3 15 -1 15 4 0 6 -7 10 -15 10 -8 0
-15 -2 -15 -4z"/>
<path d="M8235 30 c3 -5 8 -10 11 -10 2 0 4 5 4 10 0 6 -5 10 -11 10 -5 0 -7
-4 -4 -10z"/>
<path d="M9145 30 c-37 -7 -35 -7 22 -9 34 0 65 3 68 9 7 11 -28 11 -90 0z"/>
<path d="M3935 20 c3 -5 21 -10 38 -9 27 0 29 2 12 9 -28 12 -57 12 -50 0z"/>
<path d="M7735 20 c3 -5 12 -7 20 -3 21 7 19 13 -6 13 -11 0 -18 -4 -14 -10z"/>
<path d="M7965 20 c3 -5 12 -7 20 -3 21 7 19 13 -6 13 -11 0 -18 -4 -14 -10z"/>
<path d="M13035 20 c8 -13 45 -13 65 0 11 7 3 10 -28 10 -26 0 -41 -4 -37 -10z"/>
<path d="M13138 23 c7 -3 16 -2 19 1 4 3 -2 6 -13 5 -11 0 -14 -3 -6 -6z"/>
<path d="M7878 13 c6 -2 18 -2 25 0 6 3 1 5 -13 5 -14 0 -19 -2 -12 -5z"/>
<path d="M8898 13 c7 -3 16 -2 19 1 4 3 -2 6 -13 5 -11 0 -14 -3 -6 -6z"/>
<path d="M8953 13 c9 -2 23 -2 30 0 6 3 -1 5 -18 5 -16 0 -22 -2 -12 -5z"/>
<path d="M10633 13 c9 -2 23 -2 30 0 6 3 -1 5 -18 5 -16 0 -22 -2 -12 -5z"/>
</g>
</svg>
